<svg width="321" height="44" viewBox="0 0 321 44" fill="none" xmlns="http://www.w3.org/2000/svg">
<rect x="0.5" y="0.5" width="320" height="43" rx="7.5" stroke="#999999"/>
<g clip-path="url(#clip0_97_1881)">
<path fill-rule="evenodd" clip-rule="evenodd" d="M98 12C92.4771 12 88 16.4771 88 22C88 27.5229 92.4771 32 98 32C103.523 32 108 27.5229 108 22C108 16.4771 103.523 12 98 12ZM86 22C86 15.3726 91.3726 10 98 10C104.627 10 110 15.3726 110 22C110 28.6274 104.627 34 98 34C91.3726 34 86 28.6274 86 22Z" fill="black"/>
<path fill-rule="evenodd" clip-rule="evenodd" d="M95.5916 32.7358C95.4949 32.6109 95.4949 31.4986 95.5916 29.399C94.5557 29.4348 93.9012 29.3629 93.6281 29.1833C93.2185 28.914 92.8084 28.0833 92.4445 27.4979C92.0807 26.9125 91.2731 26.82 90.947 26.6891C90.6209 26.5582 90.539 26.0248 91.8456 26.4282C93.1522 26.8317 93.2159 27.9303 93.6281 28.1872C94.0403 28.4441 95.0257 28.3317 95.4724 28.1259C95.9191 27.9201 95.8862 27.1539 95.9658 26.8503C96.0665 26.567 95.7116 26.5041 95.7038 26.5018C95.2677 26.5018 92.9769 26.0036 92.3477 23.7853C91.7185 21.567 92.529 20.117 92.9614 19.4937C93.2497 19.0782 93.2242 18.1926 92.8849 16.8368C94.1167 16.6794 95.0673 17.0671 95.7367 18C95.7373 18.0054 96.6142 17.4786 98.0001 17.4786C99.386 17.4786 99.8776 17.9077 100.257 18C100.637 18.0924 100.94 16.367 103.283 16.8368C102.794 17.7984 102.384 19 102.697 19.4937C103.01 19.9874 104.237 21.5573 103.483 23.7853C102.981 25.2706 101.993 26.1761 100.519 26.5018C100.35 26.5557 100.266 26.6427 100.266 26.7627C100.266 26.9428 100.494 26.9624 100.823 27.8058C101.043 28.3681 101.058 29.974 100.871 32.6235C100.395 32.7445 100.025 32.8258 99.761 32.8673C99.2923 32.941 98.7834 32.9823 98.2834 32.9982C97.7834 33.0142 97.6098 33.0124 96.9185 32.948C96.4577 32.9051 96.0154 32.8344 95.5916 32.7358Z" fill="black"/>
</g>
<path d="M119.667 26.5V16.7H121.039V25.24H125.589V26.5H119.667ZM129.851 26.668C129.151 26.668 128.535 26.514 128.003 26.206C127.471 25.8887 127.051 25.4547 126.743 24.904C126.444 24.3533 126.295 23.7187 126.295 23C126.295 22.2813 126.444 21.6467 126.743 21.096C127.041 20.5453 127.457 20.116 127.989 19.808C128.521 19.4907 129.132 19.332 129.823 19.332C130.513 19.332 131.125 19.4907 131.657 19.808C132.189 20.116 132.604 20.5453 132.903 21.096C133.201 21.6467 133.351 22.2813 133.351 23C133.351 23.7187 133.201 24.3533 132.903 24.904C132.604 25.4547 132.189 25.8887 131.657 26.206C131.134 26.514 130.532 26.668 129.851 26.668ZM129.851 25.45C130.271 25.45 130.644 25.3473 130.971 25.142C131.297 24.9273 131.549 24.638 131.727 24.274C131.913 23.91 132.007 23.4853 132.007 23C132.007 22.5147 131.913 22.09 131.727 21.726C131.549 21.362 131.293 21.0773 130.957 20.872C130.621 20.6573 130.243 20.55 129.823 20.55C129.393 20.55 129.015 20.6573 128.689 20.872C128.362 21.0773 128.105 21.362 127.919 21.726C127.732 22.09 127.639 22.5147 127.639 23C127.639 23.4853 127.732 23.91 127.919 24.274C128.105 24.638 128.367 24.9273 128.703 25.142C129.039 25.3473 129.421 25.45 129.851 25.45ZM137.706 29.482C137.239 29.482 136.814 29.4353 136.432 29.342C136.049 29.258 135.727 29.16 135.466 29.048C135.204 28.936 135.008 28.838 134.878 28.754L135.382 27.676C135.503 27.7507 135.676 27.8347 135.9 27.928C136.124 28.0307 136.385 28.1147 136.684 28.18C136.982 28.2547 137.314 28.292 137.678 28.292C138.107 28.292 138.49 28.2033 138.826 28.026C139.162 27.858 139.423 27.592 139.61 27.228C139.806 26.864 139.904 26.3973 139.904 25.828V19.5H141.234V25.8C141.234 26.6027 141.08 27.2747 140.772 27.816C140.473 28.3667 140.058 28.782 139.526 29.062C139.003 29.342 138.396 29.482 137.706 29.482ZM137.58 26.402C136.945 26.402 136.39 26.2573 135.914 25.968C135.447 25.6693 135.078 25.2587 134.808 24.736C134.546 24.204 134.416 23.5927 134.416 22.902C134.416 22.1833 134.546 21.558 134.808 21.026C135.078 20.494 135.447 20.0787 135.914 19.78C136.39 19.4813 136.945 19.332 137.58 19.332C138.158 19.332 138.662 19.4813 139.092 19.78C139.53 20.0787 139.866 20.4987 140.1 21.04C140.342 21.572 140.464 22.1973 140.464 22.916C140.464 23.6067 140.342 24.218 140.1 24.75C139.866 25.2727 139.53 25.6787 139.092 25.968C138.662 26.2573 138.158 26.402 137.58 26.402ZM137.916 25.282C138.308 25.282 138.648 25.1793 138.938 24.974C139.227 24.7593 139.456 24.4747 139.624 24.12C139.792 23.756 139.876 23.3407 139.876 22.874C139.876 22.4073 139.792 21.9967 139.624 21.642C139.456 21.2873 139.222 21.012 138.924 20.816C138.634 20.6107 138.294 20.508 137.902 20.508C137.491 20.508 137.127 20.6107 136.81 20.816C136.502 21.012 136.259 21.2873 136.082 21.642C135.904 21.9967 135.816 22.4073 135.816 22.874C135.816 23.3407 135.904 23.756 136.082 24.12C136.268 24.4747 136.516 24.7593 136.824 24.974C137.141 25.1793 137.505 25.282 137.916 25.282ZM143.163 26.5V19.5H144.493V26.5H143.163ZM143.835 18.016C143.621 18.016 143.434 17.9367 143.275 17.778C143.117 17.61 143.037 17.4187 143.037 17.204C143.037 16.98 143.117 16.7933 143.275 16.644C143.434 16.4853 143.621 16.406 143.835 16.406C144.059 16.406 144.246 16.4853 144.395 16.644C144.554 16.7933 144.633 16.98 144.633 17.204C144.633 17.4187 144.554 17.61 144.395 17.778C144.246 17.9367 144.059 18.016 143.835 18.016ZM146.443 26.5V19.5H147.689L147.773 20.788V26.5H146.443ZM151.287 26.5V22.916H152.617V26.5H151.287ZM151.287 22.916C151.287 22.2813 151.212 21.8007 151.063 21.474C150.923 21.138 150.722 20.9047 150.461 20.774C150.209 20.6433 149.915 20.5733 149.579 20.564C149.009 20.564 148.566 20.7647 148.249 21.166C147.931 21.5673 147.773 22.132 147.773 22.86H147.199C147.199 22.1227 147.306 21.4927 147.521 20.97C147.745 20.438 148.057 20.032 148.459 19.752C148.869 19.472 149.355 19.332 149.915 19.332C150.465 19.332 150.941 19.444 151.343 19.668C151.753 19.892 152.066 20.242 152.281 20.718C152.505 21.1847 152.617 21.8007 152.617 22.566V22.916H151.287ZM165.828 26.5L168.796 16.7H170.182L167.172 26.5H165.828ZM159.878 26.5L156.91 16.7H158.31L161.222 26.5H159.878ZM160.032 26.5L162.86 16.7H164.162L161.348 26.5H160.032ZM165.702 26.5L162.944 16.7H164.246L167.06 26.5H165.702ZM171.327 26.5V19.5H172.657V26.5H171.327ZM171.999 18.016C171.785 18.016 171.598 17.9367 171.439 17.778C171.281 17.61 171.201 17.4187 171.201 17.204C171.201 16.98 171.281 16.7933 171.439 16.644C171.598 16.4853 171.785 16.406 171.999 16.406C172.223 16.406 172.41 16.4853 172.559 16.644C172.718 16.7933 172.797 16.98 172.797 17.204C172.797 17.4187 172.718 17.61 172.559 17.778C172.41 17.9367 172.223 18.016 171.999 18.016ZM177.309 26.668C176.609 26.668 176.067 26.4907 175.685 26.136C175.302 25.772 175.111 25.254 175.111 24.582V17.316H176.441V24.386C176.441 24.7313 176.525 24.9973 176.693 25.184C176.87 25.3613 177.122 25.45 177.449 25.45C177.542 25.45 177.645 25.4313 177.757 25.394C177.869 25.3567 178.004 25.282 178.163 25.17L178.667 26.206C178.424 26.3647 178.191 26.4813 177.967 26.556C177.752 26.6307 177.533 26.668 177.309 26.668ZM173.921 20.648V19.5H178.429V20.648H173.921ZM179.994 26.5V16.7H181.31V26.5H179.994ZM184.838 26.5V22.916H186.154V26.5H184.838ZM184.838 22.916C184.838 22.2813 184.763 21.8007 184.614 21.474C184.464 21.138 184.259 20.9047 183.998 20.774C183.746 20.6433 183.456 20.5733 183.13 20.564C182.551 20.564 182.103 20.7647 181.786 21.166C181.468 21.5673 181.31 22.132 181.31 22.86H180.75C180.75 22.1227 180.857 21.4927 181.072 20.97C181.296 20.438 181.608 20.032 182.01 19.752C182.42 19.472 182.906 19.332 183.466 19.332C184.016 19.332 184.492 19.444 184.894 19.668C185.295 19.892 185.608 20.242 185.832 20.718C186.056 21.1847 186.163 21.8007 186.154 22.566V22.916H184.838ZM196.019 26.668C195.03 26.668 194.148 26.4533 193.373 26.024C192.608 25.5853 192.006 24.988 191.567 24.232C191.138 23.4667 190.923 22.594 190.923 21.614C190.923 20.6153 191.138 19.738 191.567 18.982C192.006 18.2167 192.608 17.6193 193.373 17.19C194.148 16.7513 195.03 16.532 196.019 16.532C196.561 16.532 197.079 16.6207 197.573 16.798C198.077 16.966 198.53 17.204 198.931 17.512C199.342 17.8107 199.673 18.156 199.925 18.548L198.819 19.276C198.633 18.9867 198.39 18.73 198.091 18.506C197.793 18.282 197.461 18.1093 197.097 17.988C196.743 17.8573 196.383 17.792 196.019 17.792C195.301 17.792 194.661 17.9553 194.101 18.282C193.551 18.6087 193.117 19.0567 192.799 19.626C192.482 20.1953 192.323 20.858 192.323 21.614C192.323 22.3513 192.477 23.0047 192.785 23.574C193.103 24.1433 193.541 24.5913 194.101 24.918C194.671 25.2447 195.319 25.408 196.047 25.408C196.635 25.408 197.158 25.2867 197.615 25.044C198.082 24.8013 198.446 24.4607 198.707 24.022C198.978 23.5833 199.113 23.0747 199.113 22.496L200.443 22.37C200.443 23.238 200.252 23.994 199.869 24.638C199.496 25.282 198.978 25.7813 198.315 26.136C197.653 26.4907 196.887 26.668 196.019 26.668ZM196.733 22.58V21.432H200.443V22.44L199.743 22.58H196.733ZM201.911 26.5V19.5H203.241V26.5H201.911ZM202.583 18.016C202.369 18.016 202.182 17.9367 202.023 17.778C201.865 17.61 201.785 17.4187 201.785 17.204C201.785 16.98 201.865 16.7933 202.023 16.644C202.182 16.4853 202.369 16.406 202.583 16.406C202.807 16.406 202.994 16.4853 203.143 16.644C203.302 16.7933 203.381 16.98 203.381 17.204C203.381 17.4187 203.302 17.61 203.143 17.778C202.994 17.9367 202.807 18.016 202.583 18.016ZM207.893 26.668C207.193 26.668 206.651 26.4907 206.269 26.136C205.886 25.772 205.695 25.254 205.695 24.582V17.316H207.025V24.386C207.025 24.7313 207.109 24.9973 207.277 25.184C207.454 25.3613 207.706 25.45 208.033 25.45C208.126 25.45 208.229 25.4313 208.341 25.394C208.453 25.3567 208.588 25.282 208.747 25.17L209.251 26.206C209.008 26.3647 208.775 26.4813 208.551 26.556C208.336 26.6307 208.117 26.668 207.893 26.668ZM204.505 20.648V19.5H209.013V20.648H204.505ZM210.578 26.5V16.7H211.894V26.5H210.578ZM215.422 26.5V22.916H216.738V26.5H215.422ZM215.422 22.916C215.422 22.2813 215.347 21.8007 215.198 21.474C215.048 21.138 214.843 20.9047 214.582 20.774C214.33 20.6433 214.04 20.5733 213.714 20.564C213.135 20.564 212.687 20.7647 212.37 21.166C212.052 21.5673 211.894 22.132 211.894 22.86H211.334C211.334 22.1227 211.441 21.4927 211.656 20.97C211.88 20.438 212.192 20.032 212.594 19.752C213.004 19.472 213.49 19.332 214.05 19.332C214.6 19.332 215.076 19.444 215.478 19.668C215.879 19.892 216.192 20.242 216.416 20.718C216.64 21.1847 216.747 21.8007 216.738 22.566V22.916H215.422ZM223.171 26.5L223.087 25.212V19.5H224.403V26.5H223.171ZM218.243 23.084V19.5H219.573V23.084H218.243ZM219.573 23.084C219.573 23.7093 219.643 24.19 219.783 24.526C219.933 24.862 220.138 25.0953 220.399 25.226C220.661 25.3567 220.955 25.4267 221.281 25.436C221.851 25.436 222.294 25.2353 222.611 24.834C222.929 24.4327 223.087 23.868 223.087 23.14H223.661C223.661 23.8773 223.549 24.512 223.325 25.044C223.111 25.5667 222.803 25.968 222.401 26.248C222 26.528 221.51 26.668 220.931 26.668C220.39 26.668 219.914 26.556 219.503 26.332C219.102 26.108 218.789 25.758 218.565 25.282C218.351 24.806 218.243 24.19 218.243 23.434V23.084H219.573ZM226.259 26.5V16.7H227.589V25.198L227.519 26.5H226.259ZM229.885 26.668C229.297 26.668 228.784 26.514 228.345 26.206C227.916 25.898 227.584 25.4687 227.351 24.918C227.118 24.3673 227.001 23.728 227.001 23C227.001 22.2627 227.118 21.6233 227.351 21.082C227.584 20.5313 227.916 20.102 228.345 19.794C228.784 19.486 229.297 19.332 229.885 19.332C230.51 19.332 231.061 19.486 231.537 19.794C232.013 20.102 232.382 20.5313 232.643 21.082C232.914 21.6233 233.049 22.2627 233.049 23C233.049 23.728 232.914 24.3673 232.643 24.918C232.382 25.4687 232.013 25.898 231.537 26.206C231.061 26.514 230.51 26.668 229.885 26.668ZM229.563 25.464C229.983 25.464 230.352 25.3613 230.669 25.156C230.986 24.9413 231.234 24.652 231.411 24.288C231.598 23.9147 231.691 23.4853 231.691 23C231.691 22.5147 231.602 22.09 231.425 21.726C231.248 21.3527 231 21.0633 230.683 20.858C230.366 20.6433 229.997 20.536 229.577 20.536C229.194 20.536 228.849 20.6433 228.541 20.858C228.242 21.0633 228.009 21.3527 227.841 21.726C227.673 22.0993 227.589 22.524 227.589 23C227.589 23.4853 227.673 23.9147 227.841 24.288C228.009 24.652 228.242 24.9413 228.541 25.156C228.84 25.3613 229.18 25.464 229.563 25.464Z" fill="#737373"/>
<defs>
<clipPath id="clip0_97_1881">
<rect width="24" height="24" fill="white" transform="translate(86 10)"/>
</clipPath>
</defs>
</svg>
