<svg width="321" height="44" viewBox="0 0 321 44" fill="none" xmlns="http://www.w3.org/2000/svg">
<rect x="0.5" y="0.5" width="320" height="43" rx="7.5" stroke="#999999"/>
<path opacity="0.987" fill-rule="evenodd" clip-rule="evenodd" d="M96.8135 11.5915C97.901 11.47 98.5445 11.47 99.713 11.5915C101.781 11.8976 103.699 12.8537 105.188 14.3215C104.182 15.2727 103.189 16.2378 102.209 17.2165C100.333 15.6265 98.239 15.2595 95.927 16.1155C94.231 16.8955 93.05 18.1595 92.384 19.9075C91.2957 19.0972 90.2215 18.2681 89.162 17.4205C89.0884 17.3817 89.0043 17.3675 88.922 17.38C90.605 14.135 93.235 12.205 96.812 11.59" fill="#F44336"/>
<path opacity="0.997" fill-rule="evenodd" clip-rule="evenodd" d="M88.919 17.38C89.004 17.367 89.0845 17.3805 89.1605 17.4205C90.22 18.2681 91.2942 19.0973 92.3825 19.9075C92.2112 20.5886 92.1033 21.2841 92.06 21.985C92.097 22.663 92.2045 23.3285 92.3825 23.9815L89 26.674C87.527 23.596 87.5 20.498 88.919 17.38Z" fill="#FFC107"/>
<path opacity="0.999" fill-rule="evenodd" clip-rule="evenodd" d="M105.028 29.935C103.974 29.0061 102.872 28.1349 101.725 27.325C102.875 26.513 103.573 25.399 103.819 23.983H98.183V20.0695C101.433 20.0425 104.682 20.07 107.929 20.152C108.545 23.497 107.833 26.513 105.794 29.2C105.552 29.4577 105.295 29.703 105.028 29.935Z" fill="#448AFF"/>
<path opacity="0.993" fill-rule="evenodd" clip-rule="evenodd" d="M92.3825 23.983C93.6125 27.04 95.8675 28.467 99.1475 28.264C100.068 28.1574 100.951 27.8358 101.724 27.325C102.872 28.137 103.974 29.007 105.028 29.935C103.357 31.4357 101.228 32.3261 98.987 32.461C98.4778 32.5017 97.9662 32.5017 97.457 32.461C93.639 32.011 90.82 30.082 89 26.674L92.3825 23.983Z" fill="#43A047"/>
<path d="M119.327 26.5V16.7H120.699V25.24H125.249V26.5H119.327ZM129.511 26.668C128.811 26.668 128.195 26.514 127.663 26.206C127.131 25.8887 126.711 25.4547 126.403 24.904C126.104 24.3533 125.955 23.7187 125.955 23C125.955 22.2813 126.104 21.6467 126.403 21.096C126.702 20.5453 127.117 20.116 127.649 19.808C128.181 19.4907 128.792 19.332 129.483 19.332C130.174 19.332 130.785 19.4907 131.317 19.808C131.849 20.116 132.264 20.5453 132.563 21.096C132.862 21.6467 133.011 22.2813 133.011 23C133.011 23.7187 132.862 24.3533 132.563 24.904C132.264 25.4547 131.849 25.8887 131.317 26.206C130.794 26.514 130.192 26.668 129.511 26.668ZM129.511 25.45C129.931 25.45 130.304 25.3473 130.631 25.142C130.958 24.9273 131.21 24.638 131.387 24.274C131.574 23.91 131.667 23.4853 131.667 23C131.667 22.5147 131.574 22.09 131.387 21.726C131.21 21.362 130.953 21.0773 130.617 20.872C130.281 20.6573 129.903 20.55 129.483 20.55C129.054 20.55 128.676 20.6573 128.349 20.872C128.022 21.0773 127.766 21.362 127.579 21.726C127.392 22.09 127.299 22.5147 127.299 23C127.299 23.4853 127.392 23.91 127.579 24.274C127.766 24.638 128.027 24.9273 128.363 25.142C128.699 25.3473 129.082 25.45 129.511 25.45ZM137.366 29.482C136.899 29.482 136.475 29.4353 136.092 29.342C135.709 29.258 135.387 29.16 135.126 29.048C134.865 28.936 134.669 28.838 134.538 28.754L135.042 27.676C135.163 27.7507 135.336 27.8347 135.56 27.928C135.784 28.0307 136.045 28.1147 136.344 28.18C136.643 28.2547 136.974 28.292 137.338 28.292C137.767 28.292 138.15 28.2033 138.486 28.026C138.822 27.858 139.083 27.592 139.27 27.228C139.466 26.864 139.564 26.3973 139.564 25.828V19.5H140.894V25.8C140.894 26.6027 140.74 27.2747 140.432 27.816C140.133 28.3667 139.718 28.782 139.186 29.062C138.663 29.342 138.057 29.482 137.366 29.482ZM137.24 26.402C136.605 26.402 136.05 26.2573 135.574 25.968C135.107 25.6693 134.739 25.2587 134.468 24.736C134.207 24.204 134.076 23.5927 134.076 22.902C134.076 22.1833 134.207 21.558 134.468 21.026C134.739 20.494 135.107 20.0787 135.574 19.78C136.05 19.4813 136.605 19.332 137.24 19.332C137.819 19.332 138.323 19.4813 138.752 19.78C139.191 20.0787 139.527 20.4987 139.76 21.04C140.003 21.572 140.124 22.1973 140.124 22.916C140.124 23.6067 140.003 24.218 139.76 24.75C139.527 25.2727 139.191 25.6787 138.752 25.968C138.323 26.2573 137.819 26.402 137.24 26.402ZM137.576 25.282C137.968 25.282 138.309 25.1793 138.598 24.974C138.887 24.7593 139.116 24.4747 139.284 24.12C139.452 23.756 139.536 23.3407 139.536 22.874C139.536 22.4073 139.452 21.9967 139.284 21.642C139.116 21.2873 138.883 21.012 138.584 20.816C138.295 20.6107 137.954 20.508 137.562 20.508C137.151 20.508 136.787 20.6107 136.47 20.816C136.162 21.012 135.919 21.2873 135.742 21.642C135.565 21.9967 135.476 22.4073 135.476 22.874C135.476 23.3407 135.565 23.756 135.742 24.12C135.929 24.4747 136.176 24.7593 136.484 24.974C136.801 25.1793 137.165 25.282 137.576 25.282ZM142.823 26.5V19.5H144.153V26.5H142.823ZM143.495 18.016C143.281 18.016 143.094 17.9367 142.935 17.778C142.777 17.61 142.697 17.4187 142.697 17.204C142.697 16.98 142.777 16.7933 142.935 16.644C143.094 16.4853 143.281 16.406 143.495 16.406C143.719 16.406 143.906 16.4853 144.055 16.644C144.214 16.7933 144.293 16.98 144.293 17.204C144.293 17.4187 144.214 17.61 144.055 17.778C143.906 17.9367 143.719 18.016 143.495 18.016ZM146.103 26.5V19.5H147.349L147.433 20.788V26.5H146.103ZM150.947 26.5V22.916H152.277V26.5H150.947ZM150.947 22.916C150.947 22.2813 150.872 21.8007 150.723 21.474C150.583 21.138 150.382 20.9047 150.121 20.774C149.869 20.6433 149.575 20.5733 149.239 20.564C148.669 20.564 148.226 20.7647 147.909 21.166C147.591 21.5673 147.433 22.132 147.433 22.86H146.859C146.859 22.1227 146.966 21.4927 147.181 20.97C147.405 20.438 147.717 20.032 148.119 19.752C148.529 19.472 149.015 19.332 149.575 19.332C150.125 19.332 150.601 19.444 151.003 19.668C151.413 19.892 151.726 20.242 151.941 20.718C152.165 21.1847 152.277 21.8007 152.277 22.566V22.916H150.947ZM165.488 26.5L168.456 16.7H169.842L166.832 26.5H165.488ZM159.538 26.5L156.57 16.7H157.97L160.882 26.5H159.538ZM159.692 26.5L162.52 16.7H163.822L161.008 26.5H159.692ZM165.362 26.5L162.604 16.7H163.906L166.72 26.5H165.362ZM170.987 26.5V19.5H172.317V26.5H170.987ZM171.659 18.016C171.445 18.016 171.258 17.9367 171.099 17.778C170.941 17.61 170.861 17.4187 170.861 17.204C170.861 16.98 170.941 16.7933 171.099 16.644C171.258 16.4853 171.445 16.406 171.659 16.406C171.883 16.406 172.07 16.4853 172.219 16.644C172.378 16.7933 172.457 16.98 172.457 17.204C172.457 17.4187 172.378 17.61 172.219 17.778C172.07 17.9367 171.883 18.016 171.659 18.016ZM176.969 26.668C176.269 26.668 175.727 26.4907 175.345 26.136C174.962 25.772 174.771 25.254 174.771 24.582V17.316H176.101V24.386C176.101 24.7313 176.185 24.9973 176.353 25.184C176.53 25.3613 176.782 25.45 177.109 25.45C177.202 25.45 177.305 25.4313 177.417 25.394C177.529 25.3567 177.664 25.282 177.823 25.17L178.327 26.206C178.084 26.3647 177.851 26.4813 177.627 26.556C177.412 26.6307 177.193 26.668 176.969 26.668ZM173.581 20.648V19.5H178.089V20.648H173.581ZM179.654 26.5V16.7H180.97V26.5H179.654ZM184.498 26.5V22.916H185.814V26.5H184.498ZM184.498 22.916C184.498 22.2813 184.423 21.8007 184.274 21.474C184.124 21.138 183.919 20.9047 183.658 20.774C183.406 20.6433 183.116 20.5733 182.79 20.564C182.211 20.564 181.763 20.7647 181.446 21.166C181.128 21.5673 180.97 22.132 180.97 22.86H180.41C180.41 22.1227 180.517 21.4927 180.732 20.97C180.956 20.438 181.268 20.032 181.67 19.752C182.08 19.472 182.566 19.332 183.126 19.332C183.676 19.332 184.152 19.444 184.554 19.668C184.955 19.892 185.268 20.242 185.492 20.718C185.716 21.1847 185.823 21.8007 185.814 22.566V22.916H184.498ZM195.679 26.668C194.69 26.668 193.808 26.4533 193.033 26.024C192.268 25.5853 191.666 24.988 191.227 24.232C190.798 23.4667 190.583 22.594 190.583 21.614C190.583 20.6153 190.798 19.738 191.227 18.982C191.666 18.2167 192.268 17.6193 193.033 17.19C193.808 16.7513 194.69 16.532 195.679 16.532C196.221 16.532 196.739 16.6207 197.233 16.798C197.737 16.966 198.19 17.204 198.591 17.512C199.002 17.8107 199.333 18.156 199.585 18.548L198.479 19.276C198.293 18.9867 198.05 18.73 197.751 18.506C197.453 18.282 197.121 18.1093 196.757 17.988C196.403 17.8573 196.043 17.792 195.679 17.792C194.961 17.792 194.321 17.9553 193.761 18.282C193.211 18.6087 192.777 19.0567 192.459 19.626C192.142 20.1953 191.983 20.858 191.983 21.614C191.983 22.3513 192.137 23.0047 192.445 23.574C192.763 24.1433 193.201 24.5913 193.761 24.918C194.331 25.2447 194.979 25.408 195.707 25.408C196.295 25.408 196.818 25.2867 197.275 25.044C197.742 24.8013 198.106 24.4607 198.367 24.022C198.638 23.5833 198.773 23.0747 198.773 22.496L200.103 22.37C200.103 23.238 199.912 23.994 199.529 24.638C199.156 25.282 198.638 25.7813 197.975 26.136C197.313 26.4907 196.547 26.668 195.679 26.668ZM196.393 22.58V21.432H200.103V22.44L199.403 22.58H196.393ZM204.651 26.668C203.951 26.668 203.335 26.514 202.803 26.206C202.271 25.8887 201.851 25.4547 201.543 24.904C201.245 24.3533 201.095 23.7187 201.095 23C201.095 22.2813 201.245 21.6467 201.543 21.096C201.842 20.5453 202.257 20.116 202.789 19.808C203.321 19.4907 203.933 19.332 204.623 19.332C205.314 19.332 205.925 19.4907 206.457 19.808C206.989 20.116 207.405 20.5453 207.703 21.096C208.002 21.6467 208.151 22.2813 208.151 23C208.151 23.7187 208.002 24.3533 207.703 24.904C207.405 25.4547 206.989 25.8887 206.457 26.206C205.935 26.514 205.333 26.668 204.651 26.668ZM204.651 25.45C205.071 25.45 205.445 25.3473 205.771 25.142C206.098 24.9273 206.35 24.638 206.527 24.274C206.714 23.91 206.807 23.4853 206.807 23C206.807 22.5147 206.714 22.09 206.527 21.726C206.35 21.362 206.093 21.0773 205.757 20.872C205.421 20.6573 205.043 20.55 204.623 20.55C204.194 20.55 203.816 20.6573 203.489 20.872C203.163 21.0773 202.906 21.362 202.719 21.726C202.533 22.09 202.439 22.5147 202.439 23C202.439 23.4853 202.533 23.91 202.719 24.274C202.906 24.638 203.167 24.9273 203.503 25.142C203.839 25.3473 204.222 25.45 204.651 25.45ZM212.773 26.668C212.073 26.668 211.457 26.514 210.925 26.206C210.393 25.8887 209.973 25.4547 209.665 24.904C209.366 24.3533 209.217 23.7187 209.217 23C209.217 22.2813 209.366 21.6467 209.665 21.096C209.963 20.5453 210.379 20.116 210.911 19.808C211.443 19.4907 212.054 19.332 212.745 19.332C213.435 19.332 214.047 19.4907 214.579 19.808C215.111 20.116 215.526 20.5453 215.825 21.096C216.123 21.6467 216.273 22.2813 216.273 23C216.273 23.7187 216.123 24.3533 215.825 24.904C215.526 25.4547 215.111 25.8887 214.579 26.206C214.056 26.514 213.454 26.668 212.773 26.668ZM212.773 25.45C213.193 25.45 213.566 25.3473 213.893 25.142C214.219 24.9273 214.471 24.638 214.649 24.274C214.835 23.91 214.929 23.4853 214.929 23C214.929 22.5147 214.835 22.09 214.649 21.726C214.471 21.362 214.215 21.0773 213.879 20.872C213.543 20.6573 213.165 20.55 212.745 20.55C212.315 20.55 211.937 20.6573 211.611 20.872C211.284 21.0773 211.027 21.362 210.841 21.726C210.654 22.09 210.561 22.5147 210.561 23C210.561 23.4853 210.654 23.91 210.841 24.274C211.027 24.638 211.289 24.9273 211.625 25.142C211.961 25.3473 212.343 25.45 212.773 25.45ZM220.628 29.482C220.161 29.482 219.736 29.4353 219.354 29.342C218.971 29.258 218.649 29.16 218.388 29.048C218.126 28.936 217.93 28.838 217.8 28.754L218.304 27.676C218.425 27.7507 218.598 27.8347 218.822 27.928C219.046 28.0307 219.307 28.1147 219.606 28.18C219.904 28.2547 220.236 28.292 220.6 28.292C221.029 28.292 221.412 28.2033 221.748 28.026C222.084 27.858 222.345 27.592 222.532 27.228C222.728 26.864 222.826 26.3973 222.826 25.828V19.5H224.156V25.8C224.156 26.6027 224.002 27.2747 223.694 27.816C223.395 28.3667 222.98 28.782 222.448 29.062C221.925 29.342 221.318 29.482 220.628 29.482ZM220.502 26.402C219.867 26.402 219.312 26.2573 218.836 25.968C218.369 25.6693 218 25.2587 217.73 24.736C217.468 24.204 217.338 23.5927 217.338 22.902C217.338 22.1833 217.468 21.558 217.73 21.026C218 20.494 218.369 20.0787 218.836 19.78C219.312 19.4813 219.867 19.332 220.502 19.332C221.08 19.332 221.584 19.4813 222.014 19.78C222.452 20.0787 222.788 20.4987 223.022 21.04C223.264 21.572 223.386 22.1973 223.386 22.916C223.386 23.6067 223.264 24.218 223.022 24.75C222.788 25.2727 222.452 25.6787 222.014 25.968C221.584 26.2573 221.08 26.402 220.502 26.402ZM220.838 25.282C221.23 25.282 221.57 25.1793 221.86 24.974C222.149 24.7593 222.378 24.4747 222.546 24.12C222.714 23.756 222.798 23.3407 222.798 22.874C222.798 22.4073 222.714 21.9967 222.546 21.642C222.378 21.2873 222.144 21.012 221.846 20.816C221.556 20.6107 221.216 20.508 220.824 20.508C220.413 20.508 220.049 20.6107 219.732 20.816C219.424 21.012 219.181 21.2873 219.004 21.642C218.826 21.9967 218.738 22.4073 218.738 22.874C218.738 23.3407 218.826 23.756 219.004 24.12C219.19 24.4747 219.438 24.7593 219.746 24.974C220.063 25.1793 220.427 25.282 220.838 25.282ZM226.001 26.5V16.7H227.331V26.5H226.001ZM232.267 26.668C231.586 26.668 230.984 26.514 230.461 26.206C229.938 25.8887 229.528 25.4547 229.229 24.904C228.93 24.3533 228.781 23.7187 228.781 23C228.781 22.2813 228.93 21.6467 229.229 21.096C229.528 20.5453 229.938 20.116 230.461 19.808C230.993 19.4907 231.6 19.332 232.281 19.332C232.925 19.332 233.49 19.4953 233.975 19.822C234.46 20.1393 234.838 20.5967 235.109 21.194C235.389 21.782 235.529 22.4773 235.529 23.28H229.873L230.125 23.07C230.125 23.5647 230.223 23.994 230.419 24.358C230.615 24.722 230.881 25.002 231.217 25.198C231.553 25.3847 231.936 25.478 232.365 25.478C232.832 25.478 233.219 25.3707 233.527 25.156C233.844 24.932 234.092 24.652 234.269 24.316L235.417 24.848C235.23 25.212 234.988 25.534 234.689 25.814C234.39 26.0847 234.036 26.2947 233.625 26.444C233.224 26.5933 232.771 26.668 232.267 26.668ZM230.209 22.44L229.943 22.23H234.367L234.115 22.44C234.115 22.0293 234.031 21.6793 233.863 21.39C233.695 21.0913 233.471 20.8673 233.191 20.718C232.911 20.5593 232.598 20.48 232.253 20.48C231.917 20.48 231.59 20.5593 231.273 20.718C230.965 20.8673 230.708 21.0867 230.503 21.376C230.307 21.6653 230.209 22.02 230.209 22.44Z" fill="#737373"/>
</svg>
