<svg width="334" height="282" viewBox="0 0 334 282" fill="none" xmlns="http://www.w3.org/2000/svg">
<rect x="25.6289" width="282" height="282" rx="135" fill="#DDEAFC"/>
<rect x="62.6289" y="37" width="209" height="209" rx="104.5" fill="#B8D4F8"/>
<path d="M166.518 251.356C237.842 251.356 295.662 247.98 295.662 243.816C295.662 239.652 237.842 236.276 166.518 236.276C95.193 236.276 37.373 239.652 37.373 243.816C37.373 247.98 95.193 251.356 166.518 251.356Z" fill="#F5F5F5"/>
<path d="M288.872 3.20459H269.736C268.172 3.20459 266.673 3.82564 265.567 4.93112C264.462 6.03659 263.841 7.53594 263.841 9.09932V25.7511C263.841 27.3145 264.462 28.8138 265.567 29.9193C266.673 31.0248 268.172 31.6458 269.736 31.6458H275.324L270.661 40.8975L279.32 31.6458H288.905C290.458 31.6353 291.944 31.0123 293.04 29.9123C294.137 28.8123 294.755 27.3241 294.76 25.7711V9.1193C294.763 8.34383 294.614 7.5753 294.319 6.85785C294.025 6.1404 293.592 5.48815 293.045 4.93857C292.498 4.38899 291.847 3.95289 291.131 3.65532C290.415 3.35776 289.647 3.20458 288.872 3.20459Z" fill="#407BFF"/>
<path opacity="0.7" d="M288.872 3.20459H269.736C268.172 3.20459 266.673 3.82564 265.567 4.93112C264.462 6.03659 263.841 7.53594 263.841 9.09932V25.7511C263.841 27.3145 264.462 28.8138 265.567 29.9193C266.673 31.0248 268.172 31.6458 269.736 31.6458H275.324L270.661 40.8975L279.32 31.6458H288.905C290.458 31.6353 291.944 31.0123 293.04 29.9123C294.137 28.8123 294.755 27.3241 294.76 25.7711V9.1193C294.763 8.34383 294.614 7.5753 294.319 6.85785C294.025 6.1404 293.592 5.48815 293.045 4.93857C292.498 4.38899 291.847 3.95289 291.131 3.65532C290.415 3.35776 289.647 3.20458 288.872 3.20459Z" fill="white"/>
<path d="M286.017 24.07C289.726 20.3607 289.726 14.3468 286.017 10.6375C282.308 6.92826 276.294 6.92827 272.584 10.6375C268.875 14.3468 268.875 20.3607 272.584 24.07C276.294 27.7792 282.308 27.7792 286.017 24.07Z" fill="#407BFF"/>
<path d="M278.308 21.5948C278.182 21.5951 278.057 21.5679 277.941 21.5149C277.826 21.462 277.724 21.3847 277.642 21.2884L273.912 16.899C273.762 16.7223 273.688 16.4933 273.707 16.2622C273.726 16.0311 273.835 15.8169 274.012 15.6668C274.189 15.5166 274.418 15.4428 274.649 15.4615C274.88 15.4802 275.094 15.59 275.244 15.7667L278.308 19.3701L283.364 13.4154C283.438 13.328 283.529 13.256 283.631 13.2036C283.733 13.1513 283.845 13.1196 283.959 13.1103C284.074 13.101 284.189 13.1144 284.298 13.1496C284.407 13.1848 284.509 13.2412 284.596 13.3155C284.683 13.3899 284.755 13.4807 284.808 13.5829C284.86 13.6851 284.892 13.7965 284.901 13.911C284.91 14.0254 284.897 14.1405 284.862 14.2498C284.827 14.359 284.77 14.4603 284.696 14.5478L278.981 21.2884C278.898 21.3849 278.794 21.4622 278.678 21.5151C278.562 21.568 278.436 21.5952 278.308 21.5948Z" fill="white"/>
<path d="M255.105 236.922H258.495C258.939 236.922 259.364 237.098 259.677 237.412C259.991 237.725 260.167 238.15 260.167 238.594V242.803H253.413V238.594C253.413 238.373 253.457 238.154 253.542 237.949C253.628 237.745 253.752 237.56 253.91 237.405C254.067 237.249 254.254 237.126 254.459 237.043C254.664 236.961 254.884 236.919 255.105 236.922Z" fill="#263238"/>
<path d="M255.358 239.173C255.358 238.893 254.233 211.005 243.995 181.991C234.61 155.401 215.401 122.371 177.182 116.05L177.621 113.386C195.092 116.283 210.205 124.742 222.534 138.517C232.352 149.48 240.425 163.827 246.513 181.145C256.87 210.539 257.996 238.78 258.003 239.093L255.358 239.173Z" fill="#263238"/>
<path d="M268.426 236.922H271.816C272.259 236.922 272.684 237.098 272.998 237.412C273.312 237.725 273.488 238.15 273.488 238.594V242.803H266.747V238.594C266.747 238.374 266.791 238.156 266.875 237.952C266.959 237.749 267.083 237.565 267.239 237.409C267.395 237.254 267.58 237.131 267.784 237.047C267.987 236.964 268.205 236.921 268.426 236.922Z" fill="#263238"/>
<path opacity="0.2" d="M255.105 236.922H258.495C258.939 236.922 259.364 237.098 259.677 237.412C259.991 237.725 260.167 238.15 260.167 238.594V242.803H253.413V238.594C253.413 238.373 253.457 238.154 253.542 237.949C253.628 237.745 253.752 237.56 253.91 237.405C254.067 237.249 254.254 237.126 254.459 237.043C254.664 236.961 254.884 236.919 255.105 236.922Z" fill="white"/>
<path opacity="0.2" d="M268.426 236.922H271.816C272.259 236.922 272.684 237.098 272.998 237.412C273.312 237.725 273.488 238.15 273.488 238.594V242.803H266.747V238.594C266.747 238.374 266.791 238.156 266.875 237.952C266.959 237.749 267.083 237.565 267.239 237.409C267.395 237.254 267.58 237.131 267.784 237.047C267.987 236.964 268.205 236.921 268.426 236.922Z" fill="white"/>
<path d="M268.785 239.96C268.061 233.729 266.129 227.7 263.097 222.209C256.436 210.353 245.713 203.645 231.226 202.36L231.459 199.696C250.708 201.394 260.566 212.211 265.428 221.01C268.652 226.804 270.69 233.183 271.423 239.773L268.785 239.96Z" fill="#263238"/>
<path d="M65.874 242.803H59.1334V238.594C59.1334 238.15 59.3095 237.725 59.6231 237.412C59.9366 237.098 60.3618 236.922 60.8052 236.922H64.1955C64.6389 236.922 65.0642 237.098 65.3777 237.412C65.6912 237.725 65.8674 238.15 65.8674 238.594V242.803H65.874Z" fill="#263238"/>
<path d="M61.2783 239.127C61.2783 238.82 61.4781 207.968 82.7658 186.654C96.3003 173.106 115.257 166.232 139.122 166.232V168.896C107.923 168.896 85.7964 180.666 73.3608 203.885C67.6642 214.795 64.4482 226.829 63.9426 239.127H61.2783Z" fill="#263238"/>
<path opacity="0.2" d="M65.874 242.803H59.1334V238.594C59.1334 238.15 59.3095 237.725 59.6231 237.412C59.9366 237.098 60.3618 236.922 60.8052 236.922H64.1955C64.6389 236.922 65.0642 237.098 65.3777 237.412C65.6912 237.725 65.8674 238.15 65.8674 238.594V242.803H65.874Z" fill="white"/>
<path d="M146.941 166.372H143.251V168.803H146.941V166.372Z" fill="#263238"/>
<path opacity="0.7" d="M146.941 166.372H143.251V168.803H146.941V166.372Z" fill="white"/>
<path d="M143.918 165.413H137.357C136.853 165.413 136.444 165.821 136.444 166.325V168.85C136.444 169.354 136.853 169.762 137.357 169.762H143.918C144.422 169.762 144.83 169.354 144.83 168.85V166.325C144.83 165.821 144.422 165.413 143.918 165.413Z" fill="#263238"/>
<path opacity="0.2" d="M143.918 165.413H137.357C136.853 165.413 136.444 165.821 136.444 166.325V168.85C136.444 169.354 136.853 169.762 137.357 169.762H143.918C144.422 169.762 144.83 169.354 144.83 168.85V166.325C144.83 165.821 144.422 165.413 143.918 165.413Z" fill="white"/>
<path d="M169.069 115.844H172.759V113.413H169.069V115.844Z" fill="#263238"/>
<path opacity="0.7" d="M169.069 115.844H172.759V113.413H169.069V115.844Z" fill="white"/>
<path d="M172.092 116.803H178.653C179.157 116.803 179.565 116.394 179.565 115.89V113.366C179.565 112.862 179.157 112.454 178.653 112.454H172.092C171.588 112.454 171.18 112.862 171.18 113.366V115.89C171.18 116.394 171.588 116.803 172.092 116.803Z" fill="#263238"/>
<path opacity="0.2" d="M172.092 116.803H178.653C179.157 116.803 179.565 116.394 179.565 115.89V113.366C179.565 112.862 179.157 112.454 178.653 112.454H172.092C171.588 112.454 171.18 112.862 171.18 113.366V115.89C171.18 116.394 171.588 116.803 172.092 116.803Z" fill="white"/>
<path d="M222.294 202.26H225.984V199.829H222.294V202.26Z" fill="#263238"/>
<path opacity="0.7" d="M222.294 202.26H225.984V199.829H222.294V202.26Z" fill="white"/>
<path d="M225.319 203.219H231.879C232.383 203.219 232.792 202.81 232.792 202.306V199.782C232.792 199.278 232.383 198.87 231.879 198.87H225.319C224.815 198.87 224.406 199.278 224.406 199.782V202.306C224.406 202.81 224.815 203.219 225.319 203.219Z" fill="#263238"/>
<path opacity="0.2" d="M225.319 203.219H231.879C232.383 203.219 232.792 202.81 232.792 202.306V199.782C232.792 199.278 232.383 198.87 231.879 198.87H225.319C224.815 198.87 224.406 199.278 224.406 199.782V202.306C224.406 202.81 224.815 203.219 225.319 203.219Z" fill="white"/>
<path d="M107.757 181.778L132.209 175.663C137.102 174.424 142.213 174.319 147.153 175.355C152.093 176.391 156.731 178.541 160.715 181.641C164.698 184.741 167.92 188.71 170.137 193.245C172.353 197.78 173.505 202.761 173.505 207.808V243.536H82.5332V213.963C82.5342 206.55 85.0193 199.352 89.5917 193.518C94.1641 187.684 100.56 183.55 107.757 181.778Z" fill="#407BFF"/>
<path opacity="0.2" d="M107.757 181.778L132.209 175.663C137.102 174.424 142.213 174.319 147.153 175.355C152.093 176.391 156.731 178.541 160.715 181.641C164.698 184.741 167.92 188.71 170.137 193.245C172.353 197.78 173.505 202.761 173.505 207.808V243.536H82.5332V213.963C82.5342 206.55 85.0193 199.352 89.5917 193.518C94.1641 187.684 100.56 183.55 107.757 181.778Z" fill="white"/>
<path opacity="0.2" d="M173.458 243.536H107.171V207.808C107.171 199.018 110.663 190.588 116.878 184.372C123.094 178.156 131.524 174.664 140.314 174.664C149.105 174.664 157.535 178.156 163.75 184.372C169.966 190.588 173.458 199.018 173.458 207.808V243.536Z" fill="black"/>
<path d="M180.643 121.636L133.4 126.285L140.26 195.992L187.503 191.343L180.643 121.636Z" fill="#263238"/>
<path d="M182.051 129.098L133.476 133.878C132.568 133.968 131.904 134.776 131.994 135.684L132.175 137.527C132.264 138.435 133.073 139.098 133.981 139.009L182.556 134.229C183.464 134.14 184.127 133.331 184.038 132.423L183.857 130.58C183.767 129.673 182.959 129.009 182.051 129.098Z" fill="#263238"/>
<path opacity="0.1" d="M182.051 129.098L133.476 133.878C132.568 133.968 131.904 134.776 131.994 135.684L132.175 137.527C132.264 138.435 133.073 139.098 133.981 139.009L182.556 134.229C183.464 134.14 184.127 133.331 184.038 132.423L183.857 130.58C183.767 129.673 182.959 129.009 182.051 129.098Z" fill="white"/>
<path d="M182.967 138.448L134.392 143.228C133.484 143.318 132.82 144.126 132.91 145.034L133.091 146.877C133.18 147.785 133.989 148.448 134.897 148.359L183.472 143.579C184.38 143.49 185.043 142.681 184.954 141.773L184.773 139.931C184.683 139.023 183.875 138.359 182.967 138.448Z" fill="#263238"/>
<path opacity="0.1" d="M182.967 138.448L134.392 143.228C133.484 143.318 132.82 144.126 132.91 145.034L133.091 146.877C133.18 147.785 133.989 148.448 134.897 148.359L183.472 143.579C184.38 143.49 185.043 142.681 184.954 141.773L184.773 139.931C184.683 139.023 183.875 138.359 182.967 138.448Z" fill="white"/>
<path d="M185.157 148.292L136.347 153.173C135.435 153.265 134.769 154.078 134.86 154.99L135.046 156.842C135.137 157.754 135.95 158.42 136.863 158.329L185.672 153.448C186.585 153.357 187.25 152.543 187.159 151.631L186.974 149.779C186.883 148.867 186.069 148.201 185.157 148.292Z" fill="#263238"/>
<path opacity="0.1" d="M185.157 148.292L136.347 153.173C135.435 153.265 134.769 154.078 134.86 154.99L135.046 156.842C135.137 157.754 135.95 158.42 136.863 158.329L185.672 153.448C186.585 153.357 187.25 152.543 187.159 151.631L186.974 149.779C186.883 148.867 186.069 148.201 185.157 148.292Z" fill="white"/>
<path d="M184.81 157.135L136.235 161.915C135.327 162.004 134.663 162.812 134.753 163.72L134.934 165.563C135.023 166.471 135.832 167.135 136.74 167.045L185.315 162.265C186.223 162.176 186.886 161.368 186.797 160.46L186.615 158.617C186.526 157.709 185.718 157.045 184.81 157.135Z" fill="#263238"/>
<path opacity="0.1" d="M184.81 157.135L136.235 161.915C135.327 162.004 134.663 162.812 134.753 163.72L134.934 165.563C135.023 166.471 135.832 167.135 136.74 167.045L185.315 162.265C186.223 162.176 186.886 161.368 186.797 160.46L186.615 158.617C186.526 157.709 185.718 157.045 184.81 157.135Z" fill="white"/>
<path d="M185.726 166.471L137.151 171.251C136.243 171.341 135.579 172.149 135.669 173.057L135.85 174.9C135.939 175.808 136.748 176.471 137.656 176.382L186.231 171.602C187.139 171.513 187.802 170.704 187.713 169.796L187.531 167.954C187.442 167.046 186.634 166.382 185.726 166.471Z" fill="#263238"/>
<path opacity="0.1" d="M185.726 166.471L137.151 171.251C136.243 171.341 135.579 172.149 135.669 173.057L135.85 174.9C135.939 175.808 136.748 176.471 137.656 176.382L186.231 171.602C187.139 171.513 187.802 170.704 187.713 169.796L187.531 167.954C187.442 167.046 186.634 166.382 185.726 166.471Z" fill="white"/>
<path d="M186.651 175.821L138.076 180.601C137.168 180.691 136.504 181.499 136.593 182.407L136.775 184.25C136.864 185.158 137.673 185.821 138.58 185.732L187.155 180.952C188.063 180.862 188.727 180.054 188.638 179.146L188.456 177.303C188.367 176.395 187.559 175.732 186.651 175.821Z" fill="#263238"/>
<path opacity="0.1" d="M186.651 175.821L138.076 180.601C137.168 180.691 136.504 181.499 136.593 182.407L136.775 184.25C136.864 185.158 137.673 185.821 138.58 185.732L187.155 180.952C188.063 180.862 188.727 180.054 188.638 179.146L188.456 177.303C188.367 176.395 187.559 175.732 186.651 175.821Z" fill="white"/>
<path d="M138.256 191.036H195.026V206.036H133.601V195.699C133.601 194.463 134.091 193.279 134.964 192.404C135.837 191.53 137.021 191.038 138.256 191.036Z" fill="#263238"/>
<path opacity="0.2" d="M138.256 191.036H195.026V206.036H133.601V195.699C133.601 194.463 134.091 193.279 134.964 192.404C135.837 191.53 137.021 191.038 138.256 191.036Z" fill="white"/>
<path d="M162.661 198.517V243.536H107.171V207.808C107.169 204.663 107.617 201.534 108.503 198.517H162.661Z" fill="#407BFF"/>
<path d="M221.527 181.778L197.076 175.664C192.188 174.439 187.086 174.344 182.156 175.387C177.226 176.429 172.599 178.582 168.625 181.681C164.652 184.779 161.437 188.743 159.225 193.27C157.013 197.797 155.862 202.769 155.859 207.808V243.536H246.758V213.963C246.756 206.55 244.269 199.351 239.695 193.517C235.122 187.683 228.725 183.55 221.527 181.778Z" fill="#407BFF"/>
<path opacity="0.2" d="M221.527 181.778L197.076 175.664C192.188 174.439 187.086 174.344 182.156 175.387C177.226 176.429 172.599 178.582 168.625 181.681C164.652 184.779 161.437 188.743 159.225 193.27C157.013 197.797 155.862 202.769 155.859 207.808V243.536H246.758V213.963C246.756 206.55 244.269 199.351 239.695 193.517C235.122 187.683 228.725 183.55 221.527 181.778Z" fill="white"/>
<path opacity="0.2" d="M213.609 180.819C222.399 180.819 230.829 184.311 237.045 190.527C243.26 196.742 246.752 205.173 246.752 213.963V243.53H180.465V213.963C180.465 205.173 183.957 196.742 190.172 190.527C196.388 184.311 204.818 180.819 213.609 180.819Z" fill="black"/>
<path d="M98.4581 213.536H158.964C161.898 213.536 164.712 214.702 166.787 216.777C168.862 218.851 170.027 221.665 170.027 224.6V243.536H87.4014V224.593C87.4031 221.661 88.5686 218.85 90.6418 216.777C92.7149 214.703 95.5263 213.538 98.4581 213.536Z" fill="#263238"/>
<path opacity="0.2" d="M98.4581 213.536H158.964C161.898 213.536 164.712 214.702 166.787 216.777C168.862 218.851 170.027 221.665 170.027 224.6V243.536H87.4014V224.593C87.4031 221.661 88.5686 218.85 90.6418 216.777C92.7149 214.703 95.5263 213.538 98.4581 213.536Z" fill="white"/>
<path opacity="0.2" d="M96.1868 217.166H144.257C146.589 217.166 148.825 218.093 150.474 219.741C152.123 221.39 153.049 223.627 153.049 225.958V243.536H87.4014V225.958C87.4014 223.628 88.3268 221.392 89.9742 219.744C91.6216 218.095 93.8562 217.168 96.1868 217.166Z" fill="white"/>
<path opacity="0.4" d="M216.699 193.201C206.448 193.201 198.136 202.306 198.136 213.536C198.136 224.766 206.448 233.865 216.699 233.865C226.957 233.865 235.269 224.766 235.269 213.536C235.269 202.306 226.957 193.201 216.699 193.201Z" fill="black"/>
<path d="M215.807 194.147C206.036 194.147 198.109 202.806 198.109 213.536C198.109 224.24 206.036 232.919 215.807 232.919C225.585 232.919 233.504 224.26 233.504 213.536C233.531 202.826 225.611 194.147 215.807 194.147Z" fill="#263238"/>
<path d="M214.727 204.491H219.043C223.279 204.491 226.71 208.541 226.71 213.537C226.71 218.532 223.279 222.575 219.043 222.575H214.727C210.491 222.575 207.061 218.526 207.061 213.537C207.061 208.548 210.477 204.491 214.727 204.491Z" fill="#407BFF"/>
<path opacity="0.4" d="M214.727 204.491H219.043C223.279 204.491 226.71 208.541 226.71 213.537C226.71 218.532 223.279 222.575 219.043 222.575H214.727C210.491 222.575 207.061 218.526 207.061 213.537C207.061 208.548 210.477 204.491 214.727 204.491Z" fill="black"/>
<path d="M219.044 222.575C223.282 222.575 226.717 218.528 226.717 213.536C226.717 208.544 223.282 204.498 219.044 204.498C214.806 204.498 211.371 208.544 211.371 213.536C211.371 218.528 214.806 222.575 219.044 222.575Z" fill="#407BFF"/>
<path opacity="0.4" d="M219.044 221.143C222.374 221.143 225.172 217.659 225.172 213.536C225.172 209.413 222.361 205.923 219.044 205.923C215.727 205.923 212.916 209.413 212.916 213.536C212.916 217.659 215.72 221.143 219.044 221.143Z" fill="black"/>
<path d="M218.404 220.343C221.382 220.343 223.893 217.22 223.893 213.53C223.893 209.84 221.382 206.709 218.404 206.709C215.427 206.709 212.916 209.833 212.916 213.53C212.916 217.226 215.427 220.343 218.404 220.343Z" fill="#263238"/>
<path opacity="0.4" d="M124.782 230.448C124.782 232.306 123.45 233.778 121.845 233.778C120.24 233.778 118.914 232.279 118.914 230.448C118.914 228.616 120.246 227.117 121.845 227.117C123.443 227.117 124.782 228.596 124.782 230.448Z" fill="black"/>
<path d="M124.781 230.448C124.729 230.852 124.561 231.232 124.297 231.543C124.034 231.854 123.687 232.082 123.297 232.201C122.908 232.32 122.492 232.323 122.1 232.212C121.708 232.1 121.357 231.878 121.088 231.572C120.82 231.266 120.645 230.888 120.585 230.485C120.526 230.082 120.583 229.671 120.752 229.3C120.92 228.929 121.192 228.614 121.534 228.394C121.877 228.173 122.276 228.056 122.683 228.057C123.277 228.099 123.83 228.374 124.223 228.822C124.615 229.269 124.816 229.854 124.781 230.448Z" fill="#407BFF"/>
<path opacity="0.4" d="M133.539 230.448C133.539 232.306 132.207 233.778 130.608 233.778C129.01 233.778 127.678 232.279 127.678 230.448C127.678 228.616 129.01 227.117 130.608 227.117C132.207 227.117 133.539 228.596 133.539 230.448Z" fill="black"/>
<path d="M133.541 230.448C133.487 230.85 133.319 231.228 133.056 231.537C132.793 231.846 132.446 232.072 132.058 232.19C131.669 232.307 131.256 232.309 130.866 232.198C130.476 232.086 130.126 231.864 129.859 231.558C129.592 231.253 129.418 230.877 129.359 230.476C129.3 230.074 129.358 229.664 129.526 229.295C129.694 228.925 129.964 228.612 130.306 228.393C130.647 228.173 131.044 228.056 131.45 228.057C132.043 228.099 132.595 228.375 132.987 228.822C133.379 229.27 133.578 229.854 133.541 230.448Z" fill="#407BFF"/>
<path opacity="0.4" d="M142.306 230.448C142.306 232.306 140.974 233.778 139.375 233.778C137.776 233.778 136.444 232.279 136.444 230.448C136.444 228.616 137.776 227.117 139.375 227.117C140.974 227.117 142.306 228.596 142.306 230.448Z" fill="black"/>
<path d="M142.306 230.448C142.252 230.85 142.084 231.228 141.821 231.537C141.558 231.846 141.211 232.072 140.823 232.19C140.434 232.307 140.02 232.309 139.63 232.198C139.24 232.086 138.891 231.864 138.624 231.558C138.357 231.253 138.183 230.877 138.124 230.476C138.065 230.074 138.123 229.664 138.291 229.295C138.458 228.925 138.729 228.612 139.07 228.393C139.411 228.173 139.809 228.056 140.214 228.057C140.807 228.101 141.358 228.377 141.75 228.824C142.141 229.271 142.341 229.855 142.306 230.448Z" fill="#407BFF"/>
<path opacity="0.4" d="M98.8716 227.098H95.8943C95.0482 227.098 94.3623 227.784 94.3623 228.63V232.273C94.3623 233.119 95.0482 233.805 95.8943 233.805H98.8716C99.7177 233.805 100.404 233.119 100.404 232.273V228.63C100.404 227.784 99.7177 227.098 98.8716 227.098Z" fill="black"/>
<path d="M99.1782 227.77H96.9336C96.2567 227.77 95.708 228.319 95.708 228.996V231.907C95.708 232.583 96.2567 233.132 96.9336 233.132H99.1782C99.8551 233.132 100.404 232.583 100.404 231.907V228.996C100.404 228.319 99.8551 227.77 99.1782 227.77Z" fill="#407BFF"/>
<path d="M132.128 117.482H172.285V147.742C172.285 149.266 171.68 150.728 170.602 151.806C169.524 152.884 168.062 153.49 166.537 153.49H132.128V117.482Z" fill="#263238"/>
<path opacity="0.2" d="M132.128 117.482H172.285V147.742C172.285 149.266 171.68 150.728 170.602 151.806C169.524 152.884 168.062 153.49 166.537 153.49H132.128V117.482Z" fill="white"/>
<path d="M147.741 145.61C147.269 145.61 146.802 145.517 146.366 145.337C145.93 145.156 145.534 144.891 145.201 144.557C144.867 144.223 144.603 143.826 144.423 143.39C144.243 142.953 144.15 142.486 144.151 142.014V126.921C144.15 126.448 144.243 125.981 144.423 125.545C144.603 125.108 144.867 124.712 145.201 124.378C145.534 124.044 145.93 123.778 146.366 123.598C146.802 123.417 147.269 123.324 147.741 123.324C148.695 123.324 149.61 123.703 150.285 124.377C150.959 125.052 151.338 125.967 151.338 126.921V142.014C151.338 142.968 150.959 143.882 150.285 144.557C149.61 145.232 148.695 145.61 147.741 145.61Z" fill="#263238"/>
<path d="M188.298 85.9771V115.77C188.298 118.143 187.356 120.418 185.678 122.096C184 123.773 181.725 124.716 179.353 124.716H156.56C153.11 124.716 144.151 127.513 144.151 130.963V142.953H105.192V93.5436C105.192 90.1076 105.868 86.705 107.182 83.5303C108.497 80.3557 110.424 77.4711 112.853 75.0415C115.283 72.6118 118.168 70.6847 121.342 69.3701C124.517 68.0556 127.92 67.3795 131.356 67.3804H169.701C174.633 67.3804 179.364 69.3397 182.851 72.8272C186.339 76.3148 188.298 81.0449 188.298 85.9771Z" fill="#407BFF"/>
<path opacity="0.2" d="M188.298 85.9771V115.77C188.298 118.143 187.356 120.418 185.678 122.096C184 123.773 181.725 124.716 179.353 124.716H156.56C153.11 124.716 144.151 127.513 144.151 130.963V142.953H105.192V93.5436C105.192 90.1076 105.868 86.705 107.182 83.5303C108.497 80.3557 110.424 77.4711 112.853 75.0415C115.283 72.6118 118.168 70.6847 121.342 69.3701C124.517 68.0556 127.92 67.3795 131.356 67.3804H169.701C174.633 67.3804 179.364 69.3397 182.851 72.8272C186.339 76.3148 188.298 81.0449 188.298 85.9771Z" fill="white"/>
<path d="M135.798 98.5728H131.489C127.252 98.5728 123.815 102.622 123.815 107.618C123.815 112.614 127.252 116.657 131.489 116.657H135.798C140.034 116.657 143.471 112.607 143.471 107.618C143.471 102.629 140.034 98.5728 135.798 98.5728Z" fill="#407BFF"/>
<path opacity="0.3" d="M131.489 116.656C135.726 116.656 139.162 112.61 139.162 107.618C139.162 102.626 135.726 98.5791 131.489 98.5791C127.251 98.5791 123.815 102.626 123.815 107.618C123.815 112.61 127.251 116.656 131.489 116.656Z" fill="white"/>
<path opacity="0.4" d="M131.489 115.224C128.159 115.224 125.361 111.741 125.361 107.618C125.361 103.495 128.165 100.005 131.489 100.005C134.813 100.005 137.617 103.488 137.617 107.618C137.617 111.747 134.813 115.224 131.489 115.224Z" fill="black"/>
<path d="M132.128 114.438C129.151 114.438 126.633 111.314 126.633 107.624C126.633 103.934 129.151 100.804 132.128 100.804C135.105 100.804 137.616 103.928 137.616 107.624C137.616 111.321 135.105 114.438 132.128 114.438Z" fill="#263238"/>
<path opacity="0.5" d="M129.884 106.985C129.018 106.985 128.292 106.079 128.292 104.987C128.292 103.894 129.018 102.989 129.884 102.989C130.75 102.989 131.476 103.894 131.476 104.987C131.476 106.079 130.756 106.985 129.884 106.985Z" fill="white"/>
<path d="M111.78 98.5728H107.471C103.235 98.5728 99.7979 102.622 99.7979 107.618C99.7979 112.614 103.235 116.657 107.471 116.657H111.78C116.017 116.657 119.447 112.607 119.447 107.618C119.447 102.629 116.017 98.5728 111.78 98.5728Z" fill="#407BFF"/>
<path opacity="0.3" d="M107.471 116.656C111.709 116.656 115.144 112.61 115.144 107.618C115.144 102.626 111.709 98.5791 107.471 98.5791C103.233 98.5791 99.7979 102.626 99.7979 107.618C99.7979 112.61 103.233 116.656 107.471 116.656Z" fill="white"/>
<path opacity="0.4" d="M107.47 115.224C104.14 115.224 101.336 111.741 101.336 107.618C101.336 103.495 104.147 100.005 107.47 100.005C110.794 100.005 113.598 103.488 113.598 107.618C113.598 111.747 110.787 115.224 107.47 115.224Z" fill="black"/>
<path d="M108.103 114.438C105.125 114.438 102.614 111.314 102.614 107.624C102.614 103.934 105.125 100.804 108.103 100.804C111.08 100.804 113.598 103.928 113.598 107.624C113.598 111.321 111.08 114.438 108.103 114.438Z" fill="#263238"/>
<path opacity="0.5" d="M105.904 106.985C105.045 106.985 104.312 106.079 104.312 104.987C104.312 103.894 105.045 102.989 105.904 102.989C106.381 103.056 106.817 103.294 107.132 103.657C107.447 104.021 107.621 104.486 107.621 104.967C107.621 105.448 107.447 105.913 107.132 106.276C106.817 106.64 106.381 106.877 105.904 106.945V106.985Z" fill="white"/>
<path d="M113.831 133.814H122.723V114.432H118.014L109.129 133.814H113.831Z" fill="#263238"/>
<path opacity="0.2" d="M113.831 133.814H109.129L118.014 114.432H122.723L113.831 133.814Z" fill="white"/>
<path d="M172.286 146.769V147.815C172.284 153.053 170.202 158.077 166.497 161.78C162.793 165.484 157.769 167.564 152.53 167.564H124.329C119.091 167.564 114.067 165.484 110.362 161.78C106.657 158.077 104.575 153.053 104.573 147.815V139.443H143.532V145.69C143.533 147.347 144.192 148.935 145.364 150.106C146.535 151.278 148.123 151.936 149.779 151.938H167.097C167.778 151.94 168.451 151.808 169.08 151.549C169.709 151.29 170.281 150.909 170.763 150.429C171.245 149.949 171.628 149.379 171.889 148.751C172.15 148.123 172.285 147.45 172.286 146.769Z" fill="#263238"/>
<path opacity="0.2" d="M172.286 146.769V147.815C172.284 153.053 170.202 158.077 166.497 161.78C162.793 165.484 157.769 167.564 152.53 167.564H124.329C119.091 167.564 114.067 165.484 110.362 161.78C106.657 158.077 104.575 153.053 104.573 147.815V139.443H143.532V145.69C143.533 147.347 144.192 148.935 145.364 150.106C146.535 151.278 148.123 151.936 149.779 151.938H167.097C167.778 151.94 168.451 151.808 169.08 151.549C169.709 151.29 170.281 150.909 170.763 150.429C171.245 149.949 171.628 149.379 171.889 148.751C172.15 148.123 172.285 147.45 172.286 146.769Z" fill="white"/>
<path opacity="0.2" d="M112.065 147.922C111.805 147.923 111.548 147.979 111.311 148.086C111.075 148.193 110.863 148.348 110.69 148.543C110.517 148.737 110.387 148.965 110.309 149.213C110.23 149.46 110.204 149.722 110.233 149.98C110.769 154.816 113.071 159.284 116.696 162.528C120.322 165.773 125.017 167.566 129.882 167.564H133.572C128.647 167.565 123.899 165.726 120.259 162.408C116.619 159.09 114.35 154.532 113.897 149.627C113.86 149.165 113.652 148.734 113.312 148.418C112.973 148.103 112.528 147.925 112.065 147.922Z" fill="black"/>
<path opacity="0.2" d="M121.305 147.922C121.045 147.923 120.789 147.979 120.552 148.086C120.315 148.193 120.103 148.348 119.93 148.543C119.758 148.737 119.628 148.965 119.549 149.213C119.47 149.46 119.444 149.722 119.473 149.98C120.01 154.815 122.31 159.282 125.934 162.526C129.558 165.771 134.252 167.564 139.116 167.564H142.806C137.882 167.562 133.136 165.722 129.498 162.404C125.86 159.086 123.592 154.53 123.137 149.627C123.1 149.165 122.892 148.734 122.553 148.418C122.214 148.103 121.768 147.925 121.305 147.922Z" fill="black"/>
<path opacity="0.2" d="M130.549 147.922C130.289 147.923 130.033 147.979 129.796 148.086C129.559 148.193 129.347 148.348 129.175 148.543C129.002 148.737 128.872 148.965 128.793 149.213C128.714 149.46 128.689 149.722 128.718 149.98C129.254 154.815 131.554 159.282 135.178 162.526C138.802 165.771 143.496 167.564 148.36 167.564H152.05C147.126 167.562 142.381 165.722 138.742 162.404C135.104 159.086 132.836 154.53 132.381 149.627C132.344 149.165 132.136 148.734 131.797 148.418C131.458 148.103 131.013 147.925 130.549 147.922Z" fill="black"/>
<path d="M143.792 142.926H104.734C104.431 142.927 104.132 142.868 103.853 142.753C103.574 142.638 103.32 142.469 103.107 142.255C102.893 142.041 102.724 141.788 102.609 141.509C102.494 141.229 102.435 140.93 102.436 140.628C102.435 140.326 102.493 140.026 102.609 139.747C102.724 139.467 102.893 139.213 103.106 138.999C103.32 138.785 103.573 138.615 103.853 138.499C104.132 138.383 104.431 138.323 104.734 138.323H143.792C144.403 138.323 144.989 138.566 145.421 138.999C145.854 139.431 146.096 140.017 146.096 140.628C146.097 140.93 146.037 141.23 145.921 141.509C145.805 141.788 145.635 142.042 145.421 142.255C145.207 142.469 144.953 142.638 144.673 142.753C144.394 142.868 144.094 142.927 143.792 142.926Z" fill="#263238"/>
<path opacity="0.4" d="M146.095 140.628C146.092 141.239 145.848 141.823 145.416 142.254C144.985 142.686 144.401 142.929 143.791 142.933H104.732C104.276 142.933 103.831 142.797 103.452 142.543C103.073 142.29 102.778 141.929 102.604 141.508C102.43 141.086 102.385 140.623 102.475 140.176C102.564 139.729 102.784 139.318 103.107 138.996C103.32 138.783 103.573 138.614 103.852 138.499C104.131 138.385 104.431 138.328 104.732 138.33H143.791C144.401 138.33 144.986 138.572 145.418 139.003C145.85 139.434 146.093 140.018 146.095 140.628Z" fill="white"/>
<path opacity="0.2" d="M146.096 140.628C146.092 141.238 145.848 141.822 145.417 142.254C144.985 142.685 144.401 142.929 143.791 142.933H143.538C142.927 142.933 142.341 142.69 141.908 142.258C141.476 141.826 141.233 141.239 141.233 140.628C141.233 140.017 141.476 139.431 141.908 138.999C142.341 138.566 142.927 138.323 143.538 138.323H143.791C144.094 138.323 144.393 138.383 144.673 138.499C144.953 138.615 145.207 138.784 145.421 138.999C145.635 139.213 145.804 139.467 145.92 139.746C146.036 140.026 146.096 140.325 146.096 140.628Z" fill="black"/>
<path d="M183.17 106.845V117.948C183.17 118.346 183.092 118.74 182.939 119.107C182.787 119.474 182.564 119.808 182.282 120.089C182 120.37 181.666 120.592 181.299 120.744C180.931 120.896 180.537 120.973 180.139 120.972H169.049C168.247 120.972 167.478 120.654 166.911 120.087C166.344 119.52 166.025 118.75 166.025 117.948V106.845C166.027 106.044 166.347 105.277 166.913 104.711C167.48 104.145 168.249 103.828 169.049 103.828H180.146C180.947 103.828 181.715 104.145 182.282 104.711C182.849 105.277 183.168 106.044 183.17 106.845Z" fill="#407BFF"/>
<path opacity="0.2" d="M183.169 106.845V117.948C183.169 118.346 183.09 118.74 182.938 119.107C182.785 119.474 182.562 119.808 182.281 120.089C181.999 120.37 181.665 120.592 181.297 120.744C180.93 120.896 180.536 120.973 180.138 120.972H172.745C171.943 120.972 171.174 120.654 170.606 120.087C170.039 119.52 169.721 118.75 169.721 117.948V106.845C169.721 106.448 169.799 106.055 169.951 105.689C170.103 105.322 170.326 104.989 170.607 104.709C170.888 104.429 171.221 104.207 171.588 104.055C171.955 103.904 172.348 103.827 172.745 103.828H180.145C180.946 103.828 181.714 104.145 182.281 104.711C182.848 105.277 183.167 106.044 183.169 106.845Z" fill="black"/>
<path d="M180.971 108.477H173.238C173.137 108.478 173.038 108.459 172.945 108.421C172.852 108.383 172.768 108.327 172.696 108.257C172.625 108.186 172.569 108.102 172.53 108.01C172.492 107.917 172.472 107.818 172.472 107.717C172.471 107.617 172.49 107.517 172.528 107.423C172.566 107.33 172.623 107.245 172.694 107.174C172.765 107.103 172.85 107.046 172.944 107.008C173.037 106.97 173.137 106.951 173.238 106.951H180.971C181.071 106.951 181.17 106.971 181.263 107.01C181.355 107.048 181.439 107.105 181.51 107.176C181.581 107.247 181.636 107.332 181.674 107.425C181.712 107.518 181.731 107.617 181.73 107.717C181.73 107.919 181.65 108.112 181.508 108.254C181.365 108.397 181.172 108.477 180.971 108.477Z" fill="#263238"/>
<path d="M180.971 111.601H173.238C173.137 111.602 173.037 111.583 172.944 111.545C172.85 111.506 172.765 111.45 172.694 111.379C172.623 111.307 172.566 111.223 172.528 111.129C172.49 111.036 172.471 110.936 172.472 110.835C172.472 110.735 172.492 110.635 172.53 110.543C172.569 110.45 172.625 110.366 172.696 110.296C172.768 110.225 172.852 110.169 172.945 110.132C173.038 110.094 173.137 110.075 173.238 110.076H180.971C181.172 110.076 181.365 110.156 181.508 110.298C181.65 110.441 181.73 110.634 181.73 110.835C181.731 110.935 181.712 111.035 181.674 111.128C181.636 111.221 181.581 111.305 181.51 111.376C181.439 111.447 181.355 111.504 181.263 111.543C181.17 111.581 181.071 111.601 180.971 111.601Z" fill="#263238"/>
<path d="M180.971 114.725H173.238C173.035 114.725 172.84 114.644 172.696 114.5C172.552 114.357 172.472 114.162 172.472 113.959C172.472 113.859 172.492 113.759 172.53 113.667C172.569 113.574 172.625 113.49 172.696 113.42C172.768 113.349 172.852 113.293 172.945 113.255C173.038 113.218 173.137 113.199 173.238 113.199H180.971C181.172 113.199 181.365 113.279 181.508 113.422C181.65 113.564 181.73 113.757 181.73 113.959C181.73 114.161 181.65 114.355 181.508 114.498C181.366 114.642 181.173 114.723 180.971 114.725Z" fill="#263238"/>
<path d="M180.971 117.849H173.238C173.035 117.849 172.84 117.768 172.696 117.624C172.552 117.481 172.472 117.286 172.472 117.083C172.472 116.982 172.492 116.883 172.53 116.79C172.569 116.698 172.625 116.614 172.696 116.543C172.768 116.473 172.852 116.417 172.945 116.379C173.038 116.341 173.137 116.322 173.238 116.323H180.971C181.172 116.323 181.365 116.403 181.508 116.546C181.65 116.688 181.73 116.881 181.73 117.083C181.73 117.285 181.65 117.478 181.508 117.622C181.366 117.765 181.173 117.847 180.971 117.849Z" fill="#263238"/>
<path d="M190.763 90.12V93.1239C190.763 93.7775 190.504 94.4044 190.042 94.8666C189.579 95.3288 188.953 95.5884 188.299 95.5884V88.4082C188.299 83.3152 186.276 78.4309 182.675 74.8297C179.073 71.2285 174.189 69.2053 169.096 69.2053H153.863C151.248 69.2053 148.659 69.7209 146.244 70.7225C143.829 71.7241 141.635 73.192 139.788 75.0424C137.94 76.8928 136.476 79.0893 135.479 81.5061C134.481 83.923 133.97 86.5129 133.974 89.1275C133.974 90.5284 133.418 91.8719 132.427 92.8624C131.437 93.853 130.093 94.4094 128.692 94.4094H110.042C108.913 94.4077 107.83 93.9578 107.032 93.1585C106.234 92.3593 105.786 91.276 105.786 90.1466C105.788 83.2088 108.545 76.5558 113.452 71.6507C118.358 66.7456 125.012 63.99 131.949 63.99H164.587C171.522 63.9882 178.174 66.7391 183.082 71.6385C187.99 76.5379 190.753 83.185 190.763 90.12Z" fill="#407BFF"/>
<path opacity="0.4" d="M180.464 89.314C182.123 89.314 183.528 91.0591 183.528 93.1172C183.528 95.1754 182.123 96.9272 180.464 96.9272C178.806 96.9272 177.4 95.1821 177.4 93.1172C177.4 91.0524 178.806 89.314 180.464 89.314Z" fill="black"/>
<path d="M180.145 89.7136C181.63 89.7136 182.889 91.2722 182.889 93.1172C182.889 94.9623 181.63 96.5275 180.145 96.5275C178.659 96.5275 177.4 94.9689 177.4 93.1172C177.4 91.2656 178.659 89.7136 180.145 89.7136Z" fill="#263238"/>
<path opacity="0.4" d="M171.893 89.314C173.552 89.314 174.957 91.0591 174.957 93.1172C174.957 95.1754 173.552 96.9272 171.893 96.9272C170.235 96.9272 168.829 95.1821 168.829 93.1172C168.829 91.0524 170.228 89.314 171.893 89.314Z" fill="black"/>
<path d="M171.573 89.7136C173.059 89.7136 174.318 91.2722 174.318 93.1172C174.318 94.9623 173.059 96.5275 171.573 96.5275C170.088 96.5275 168.829 94.9689 168.829 93.1172C168.829 91.2656 170.081 89.7136 171.573 89.7136Z" fill="#263238"/>
<path opacity="0.4" d="M163.313 89.314C164.978 89.314 166.377 91.0591 166.377 93.1172C166.377 95.1754 164.978 96.9272 163.313 96.9272C161.648 96.9272 160.249 95.1821 160.249 93.1172C160.249 91.0524 161.654 89.314 163.313 89.314Z" fill="black"/>
<path d="M162.993 89.7136C164.485 89.7136 165.744 91.2722 165.744 93.1172C165.744 94.9623 164.485 96.5275 162.993 96.5275C161.501 96.5275 160.249 94.9689 160.249 93.1172C160.249 91.2656 161.508 89.7136 162.993 89.7136Z" fill="#263238"/>
<path opacity="0.4" d="M176.175 79.4629C177.84 79.4629 179.239 81.2013 179.239 83.2661C179.239 85.331 177.84 87.0694 176.175 87.0694C174.51 87.0694 173.111 85.3243 173.111 83.2661C173.111 81.208 174.51 79.4629 176.175 79.4629Z" fill="black"/>
<path d="M175.843 79.856C177.335 79.856 178.594 81.4212 178.594 83.2662C178.594 85.1113 177.335 86.6765 175.843 86.6765C174.351 86.6765 173.099 85.1113 173.099 83.2662C173.099 81.4212 174.371 79.856 175.843 79.856Z" fill="#263238"/>
<path opacity="0.4" d="M167.603 79.4629C169.262 79.4629 170.667 81.2013 170.667 83.2661C170.667 85.331 169.262 87.0694 167.603 87.0694C165.944 87.0694 164.539 85.3243 164.539 83.2661C164.539 81.208 165.944 79.4629 167.603 79.4629Z" fill="black"/>
<path d="M167.283 79.856C168.768 79.856 170.027 81.4212 170.027 83.2662C170.027 85.1113 168.768 86.6765 167.283 86.6765C165.797 86.6765 164.519 85.1312 164.519 83.2662C164.519 81.4012 165.797 79.856 167.283 79.856Z" fill="#263238"/>
</svg>
