<svg width="84" height="119" viewBox="0 0 84 119" fill="none" xmlns="http://www.w3.org/2000/svg">
<rect x="7" width="70" height="70.1313" rx="35" fill="white"/>
<path d="M26.8828 38.0088L47.3258 17.538C49.2771 15.584 52.4429 15.5819 54.3968 17.5331L65.4472 28.5684C67.4011 30.5197 67.4033 33.6855 65.452 35.6395L48.5421 52.5724C46.5908 54.5263 43.425 54.5285 41.4711 52.5772L26.8828 38.0088Z" fill="#00CADB"/>
<path d="M18.5379 41.5629C16.584 39.6116 16.5818 36.4458 18.5331 34.4918L35.443 17.559C37.3943 15.605 40.5601 15.6028 42.514 17.5541L57.1023 32.1225L36.6593 52.5934C34.708 54.5473 31.5422 54.5495 29.5883 52.5982L18.5379 41.5629Z" fill="#1A73E8"/>
<path d="M26.8828 37.9875L32.9456 31.9247L39.0084 37.9875L51.1341 26.1255L57.6018 31.9247L39.0084 50.1131L26.8828 37.9875Z" fill="white"/>
<path d="M15.8406 101.178V96.6938C15.8406 96.0793 15.7208 95.5011 15.4813 94.9595C15.2521 94.4074 14.9344 93.9282 14.5281 93.522C14.1219 93.1157 13.6427 92.798 13.0906 92.5688C12.549 92.3293 11.9708 92.2095 11.3563 92.2095C10.7417 92.2095 10.1583 92.3293 9.60625 92.5688C9.06458 92.798 8.59063 93.1157 8.18438 93.522C7.77813 93.9282 7.45521 94.4074 7.21563 94.9595C6.98646 95.5011 6.87188 96.0793 6.87188 96.6938V101.178H15.8406ZM20.325 110.131H15.8406V105.647H6.87188V110.131H2.40313V96.6938C2.40313 95.4543 2.6375 94.2928 3.10625 93.2095C3.575 92.1157 4.21042 91.1626 5.0125 90.3501C5.825 89.5376 6.77292 88.897 7.85625 88.4282C8.95 87.9595 10.1167 87.7251 11.3563 87.7251C12.5958 87.7251 13.7573 87.9595 14.8406 88.4282C15.9344 88.897 16.8875 89.5376 17.7 90.3501C18.5125 91.1626 19.1531 92.1157 19.6219 93.2095C20.0906 94.2928 20.325 95.4543 20.325 96.6938V110.131ZM35.8325 101.616C35.8325 101.032 35.7179 100.47 35.4888 99.9282C35.27 99.3761 34.9679 98.8918 34.5825 98.4751C34.1971 98.048 33.744 97.7095 33.2231 97.4595C32.7127 97.1991 32.1658 97.0688 31.5825 97.0688C30.9992 97.0688 30.4471 97.1678 29.9263 97.3657C29.4158 97.5636 28.9679 97.8553 28.5825 98.2407C28.2075 98.6261 27.9106 99.1053 27.6919 99.6782C27.4731 100.241 27.3638 100.887 27.3638 101.616C27.3638 102.314 27.4731 102.944 27.6919 103.506C27.9106 104.058 28.2075 104.532 28.5825 104.928C28.9679 105.324 29.4158 105.631 29.9263 105.85C30.4471 106.058 30.9992 106.163 31.5825 106.163C32.1658 106.163 32.7127 106.038 33.2231 105.788C33.744 105.527 34.1971 105.189 34.5825 104.772C34.9679 104.345 35.27 103.861 35.4888 103.319C35.7179 102.767 35.8325 102.199 35.8325 101.616ZM40.1294 108.022C40.1294 109.199 39.9054 110.303 39.4575 111.334C39.0096 112.366 38.395 113.267 37.6138 114.038C36.8429 114.808 35.9367 115.418 34.895 115.866C33.8638 116.314 32.7596 116.538 31.5825 116.538L29.4419 116.506V112.241L31.5513 112.272C32.2179 112.272 32.7856 112.183 33.2544 112.006C33.7231 111.84 34.119 111.605 34.4419 111.303C34.7648 111.012 35.02 110.673 35.2075 110.288C35.4054 109.902 35.5617 109.496 35.6763 109.069C35.5096 109.34 35.27 109.564 34.9575 109.741C34.645 109.907 34.296 110.043 33.9106 110.147C33.5356 110.262 33.1398 110.34 32.7231 110.381C32.3169 110.423 31.9367 110.444 31.5825 110.444C30.4054 110.444 29.296 110.241 28.2544 109.834C27.2231 109.428 26.3169 108.85 25.5356 108.1C24.7648 107.34 24.1554 106.413 23.7075 105.319C23.2596 104.225 23.0356 102.991 23.0356 101.616C23.0356 100.355 23.2596 99.1834 23.7075 98.1001C24.1554 97.0168 24.7648 96.0793 25.5356 95.2876C26.3169 94.4959 27.2231 93.8761 28.2544 93.4282C29.296 92.9803 30.4054 92.7563 31.5825 92.7563C32.1242 92.7563 32.6606 92.8241 33.1919 92.9595C33.7231 93.0949 34.2388 93.2824 34.7388 93.522C35.2388 93.7616 35.7127 94.0428 36.1606 94.3657C36.619 94.6886 37.046 95.0376 37.4419 95.4126L39.0981 93.4282H40.1294V108.022ZM48.7463 88.8501C48.7463 89.2459 48.6681 89.6157 48.5119 89.9595C48.366 90.3032 48.1629 90.6053 47.9025 90.8657C47.6421 91.1157 47.3348 91.3188 46.9806 91.4751C46.6369 91.6209 46.2671 91.6938 45.8713 91.6938C45.4754 91.6938 45.1004 91.6209 44.7463 91.4751C44.4025 91.3188 44.1004 91.1157 43.84 90.8657C43.59 90.6053 43.3869 90.3032 43.2306 89.9595C43.0848 89.6157 43.0119 89.2459 43.0119 88.8501C43.0119 88.4647 43.0848 88.1001 43.2306 87.7563C43.3869 87.4022 43.59 87.1001 43.84 86.8501C44.1004 86.5897 44.4025 86.3866 44.7463 86.2407C45.1004 86.0845 45.4754 86.0063 45.8713 86.0063C46.2671 86.0063 46.6369 86.0845 46.9806 86.2407C47.3348 86.3866 47.6421 86.5897 47.9025 86.8501C48.1629 87.1001 48.366 87.4022 48.5119 87.7563C48.6681 88.1001 48.7463 88.4647 48.7463 88.8501ZM48.0119 110.131H43.715V93.397H48.0119V110.131ZM55.8944 110.131H51.5975V86.7407H55.8944V110.131ZM66.1362 106.038C66.3029 106.09 66.4696 106.126 66.6362 106.147C66.8029 106.157 66.9696 106.163 67.1362 106.163C67.5529 106.163 67.954 106.105 68.3394 105.991C68.7248 105.876 69.0842 105.715 69.4175 105.506C69.7612 105.288 70.0633 105.027 70.3237 104.725C70.5946 104.413 70.8133 104.069 70.98 103.694L74.105 106.834C73.7092 107.397 73.2508 107.902 72.73 108.35C72.2196 108.798 71.6623 109.178 71.0581 109.491C70.4644 109.803 69.8342 110.038 69.1675 110.194C68.5112 110.361 67.8342 110.444 67.1362 110.444C65.9592 110.444 64.8498 110.225 63.8081 109.788C62.7769 109.35 61.8706 108.741 61.0894 107.959C60.3185 107.178 59.7092 106.251 59.2612 105.178C58.8133 104.095 58.5894 102.907 58.5894 101.616C58.5894 100.293 58.8133 99.0845 59.2612 97.9907C59.7092 96.897 60.3185 95.9647 61.0894 95.1938C61.8706 94.423 62.7769 93.8241 63.8081 93.397C64.8498 92.9699 65.9592 92.7563 67.1362 92.7563C67.8342 92.7563 68.5165 92.8397 69.1831 93.0063C69.8498 93.173 70.48 93.4126 71.0737 93.7251C71.6779 94.0376 72.2404 94.423 72.7612 94.8813C73.2821 95.3293 73.7404 95.8345 74.1362 96.397L66.1362 106.038ZM68.3237 97.2407C68.1258 97.1678 67.9279 97.1209 67.73 97.1001C67.5425 97.0793 67.3446 97.0688 67.1362 97.0688C66.5529 97.0688 66.0008 97.1782 65.48 97.397C64.9696 97.6053 64.5217 97.9074 64.1362 98.3032C63.7612 98.6991 63.4644 99.1782 63.2456 99.7407C63.0269 100.293 62.9175 100.918 62.9175 101.616C62.9175 101.772 62.9227 101.949 62.9331 102.147C62.954 102.345 62.98 102.548 63.0112 102.756C63.0529 102.954 63.0998 103.147 63.1519 103.334C63.204 103.522 63.2717 103.689 63.355 103.834L68.3237 97.2407ZM81.8625 108.538C81.8625 108.913 81.7948 109.267 81.6594 109.6C81.524 109.923 81.3365 110.204 81.0969 110.444C80.8573 110.683 80.576 110.871 80.2531 111.006C79.9302 111.152 79.5813 111.225 79.2063 111.225C78.8417 111.225 78.4927 111.152 78.1594 111.006C77.8365 110.871 77.55 110.683 77.3 110.444C77.0604 110.204 76.8677 109.923 76.7219 109.6C76.5865 109.267 76.5188 108.913 76.5188 108.538C76.5188 108.173 76.5865 107.829 76.7219 107.506C76.8677 107.183 77.0604 106.902 77.3 106.663C77.55 106.423 77.8365 106.236 78.1594 106.1C78.4927 105.954 78.8417 105.881 79.2063 105.881C79.5813 105.881 79.9302 105.954 80.2531 106.1C80.576 106.236 80.8573 106.423 81.0969 106.663C81.3365 106.902 81.524 107.183 81.6594 107.506C81.7948 107.829 81.8625 108.173 81.8625 108.538Z" fill="white"/>
</svg>
