<svg width="320" height="338" viewBox="0 0 320 338" fill="none" xmlns="http://www.w3.org/2000/svg">
<g opacity="0.75">
<rect x="167" y="38" width="152.585" height="261" rx="23" fill="white"/>
<path d="M167.401 65.3047H319.584" stroke="#BFBFBF"/>
<rect x="176.637" y="76.5476" width="133.311" height="23.2892" rx="2" fill="#E6E6E6"/>
<rect x="183.062" y="82.1692" width="65.8523" height="4.81846" rx="2" fill="#CCCCCC"/>
<rect x="183.062" y="89.397" width="40.9569" height="4.81846" rx="2" fill="#CCCCCC"/>
<rect x="176.792" y="104.655" width="133" height="22" rx="2" fill="#E6E6E6"/>
<rect x="176.792" y="129.655" width="133" height="27" rx="2" fill="#DDEAFC"/>
<rect x="176.792" y="159.655" width="133" height="18" rx="2" fill="#D9F7FA"/>
<rect x="176.792" y="180.655" width="133" height="18" rx="2" fill="#FF8FD2"/>
</g>
<g opacity="0.75">
<rect y="38" width="152.585" height="261" rx="23" fill="white"/>
<path d="M0.401367 65.3047H152.584" stroke="#BFBFBF"/>
<rect x="9.63672" y="76.5476" width="133.311" height="23.2892" rx="2" fill="#E6E6E6"/>
<rect x="16.0615" y="82.1692" width="65.8523" height="4.81846" rx="2" fill="#CCCCCC"/>
<rect x="16.0615" y="89.397" width="40.9569" height="4.81846" rx="2" fill="#CCCCCC"/>
<rect x="9.63672" y="104.655" width="133.311" height="40.9569" rx="2" fill="#FFCBCB"/>
<rect x="9.63672" y="150.431" width="133.311" height="49.7908" rx="2" fill="#AAE4FF"/>
<rect x="9.63672" y="205.04" width="133.311" height="33.7292" rx="2" fill="#ACA7FF"/>
<rect x="9.63672" y="243.588" width="133.311" height="33.7292" rx="2" fill="#FFC1F7"/>
<rect x="16.0615" y="111.883" width="120.462" height="4.81846" rx="2" fill="#FF4646"/>
<rect x="16.0615" y="162.477" width="120.462" height="4.81846" rx="2" fill="#B8D4F8"/>
<rect x="16" y="212" width="120.462" height="4.81846" rx="2" fill="#6B62FF"/>
<rect x="16.0615" y="126.338" width="120.462" height="4.81846" rx="2" fill="#FF4646"/>
<rect x="16.0615" y="176.932" width="120.462" height="4.81846" rx="2" fill="#B8D4F8"/>
<rect x="16" y="226.455" width="120.462" height="4.81846" rx="2" fill="#6B62FF"/>
<rect x="16" y="254" width="120.462" height="4.81846" rx="2" fill="#FF68EB"/>
<rect x="16.0615" y="133.566" width="74.6862" height="4.81846" rx="2" fill="#FF4646"/>
<rect x="16.0615" y="184.16" width="74.6862" height="4.81846" rx="2" fill="#B8D4F8"/>
<rect x="16" y="261.228" width="74.6862" height="4.81846" rx="2" fill="#FF68EB"/>
<rect x="16.0615" y="119.111" width="74.6862" height="4.81846" rx="2" fill="#FF4646"/>
<rect x="16.0615" y="169.705" width="74.6862" height="4.81846" rx="2" fill="#B8D4F8"/>
<rect x="16" y="219.228" width="74.6862" height="4.81846" rx="2" fill="#6B62FF"/>
</g>
<rect x="61" width="197.022" height="337.012" rx="23" fill="white"/>
<path d="M61.5176 35.2571H258.022" stroke="#BFBFBF"/>
<rect x="73.4473" y="49.7744" width="172.135" height="30.0719" rx="2" fill="#E6E6E6"/>
<rect x="81.7393" y="57.0325" width="85.0307" height="6.22176" rx="2" fill="#CCCCCC"/>
<rect x="81.7393" y="66.365" width="52.885" height="6.22176" rx="2" fill="#CCCCCC"/>
<rect x="73.4473" y="86.0671" width="172.135" height="52.885" rx="2" fill="#A8FFD5"/>
<rect x="73.4473" y="145.174" width="172.135" height="64.2915" rx="2" fill="#B8D4F8"/>
<rect x="73.4473" y="215.688" width="172.135" height="43.5523" rx="2" fill="#B0EFF4"/>
<rect x="81.7393" y="95.3997" width="155.544" height="6.22176" rx="2" fill="#64D8A0"/>
<rect x="81.7393" y="160.729" width="155.544" height="6.22176" rx="2" fill="#1A73E8"/>
<rect x="81.7393" y="225.021" width="155.544" height="6.22176" rx="2" fill="#00CADB"/>
<rect x="81.7393" y="114.066" width="155.544" height="6.22176" rx="2" fill="#64D8A0"/>
<rect x="81.7393" y="179.394" width="155.544" height="6.22176" rx="2" fill="#1A73E8"/>
<rect x="81.7393" y="123.399" width="96.4373" height="6.22176" rx="2" fill="#64D8A0"/>
<rect x="81.7393" y="188.726" width="96.4373" height="6.22176" rx="2" fill="#1A73E8"/>
<rect x="81.7393" y="243.686" width="67.4024" height="6.22176" rx="2" fill="#00CADB"/>
<rect x="81.7393" y="104.734" width="96.4373" height="6.22176" rx="2" fill="#64D8A0"/>
<rect x="81.7393" y="170.061" width="96.4373" height="6.22176" rx="2" fill="#1A73E8"/>
<rect x="81.7393" y="234.353" width="96.4373" height="6.22176" rx="2" fill="#00CADB"/>
<path d="M149.146 27.6279H147.75V22.0273H145.645V20.626H151.246V22.0273H149.146V27.6279ZM156.18 24.9668C156.18 25.3574 156.11 25.722 155.97 26.0605C155.83 26.3958 155.639 26.6872 155.398 26.9346C155.158 27.1787 154.874 27.3724 154.549 27.5156C154.227 27.6556 153.88 27.7256 153.509 27.7256C153.141 27.7256 152.794 27.6556 152.469 27.5156C152.146 27.3724 151.863 27.1787 151.619 26.9346C151.378 26.6872 151.188 26.3958 151.048 26.0605C150.908 25.722 150.838 25.3574 150.838 24.9668C150.838 24.5697 150.908 24.2018 151.048 23.8633C151.188 23.5247 151.378 23.2334 151.619 22.9893C151.863 22.7419 152.146 22.5482 152.469 22.4082C152.794 22.2682 153.141 22.1982 153.509 22.1982C153.88 22.1982 154.227 22.265 154.549 22.3984C154.874 22.5286 155.158 22.7158 155.398 22.96C155.639 23.2008 155.83 23.4922 155.97 23.834C156.11 24.1725 156.18 24.5501 156.18 24.9668ZM154.837 24.9668C154.837 24.752 154.801 24.5583 154.729 24.3857C154.661 24.21 154.567 24.0602 154.446 23.9365C154.326 23.8096 154.184 23.7135 154.021 23.6484C153.862 23.5801 153.691 23.5459 153.509 23.5459C153.327 23.5459 153.154 23.5801 152.991 23.6484C152.832 23.7135 152.692 23.8096 152.571 23.9365C152.454 24.0602 152.361 24.21 152.293 24.3857C152.225 24.5583 152.19 24.752 152.19 24.9668C152.19 25.1686 152.225 25.3558 152.293 25.5283C152.361 25.7008 152.454 25.8506 152.571 25.9775C152.692 26.1045 152.832 26.2054 152.991 26.2803C153.154 26.3519 153.327 26.3877 153.509 26.3877C153.691 26.3877 153.862 26.3535 154.021 26.2852C154.184 26.2168 154.326 26.1208 154.446 25.9971C154.567 25.8734 154.661 25.7236 154.729 25.5479C154.801 25.3721 154.837 25.1784 154.837 24.9668ZM162.071 27.6279H161.748L161.231 26.9102C161.104 27.0241 160.969 27.1315 160.826 27.2324C160.686 27.3301 160.538 27.4163 160.381 27.4912C160.225 27.5628 160.064 27.6198 159.898 27.6621C159.735 27.7044 159.569 27.7256 159.4 27.7256C159.032 27.7256 158.685 27.6572 158.36 27.5205C158.038 27.3805 157.754 27.1885 157.51 26.9443C157.269 26.6969 157.079 26.4056 156.939 26.0703C156.799 25.7318 156.729 25.3639 156.729 24.9668C156.729 24.5729 156.799 24.2067 156.939 23.8682C157.079 23.5296 157.269 23.2367 157.51 22.9893C157.754 22.7419 158.038 22.5482 158.36 22.4082C158.685 22.2682 159.032 22.1982 159.4 22.1982C159.517 22.1982 159.637 22.208 159.761 22.2275C159.888 22.2471 160.01 22.2796 160.127 22.3252C160.248 22.3675 160.36 22.4245 160.464 22.4961C160.568 22.5677 160.656 22.6556 160.728 22.7598V20.3184H162.071V27.6279ZM160.728 24.9668C160.728 24.7845 160.692 24.6087 160.621 24.4395C160.552 24.2669 160.458 24.1156 160.337 23.9854C160.217 23.8519 160.075 23.7461 159.913 23.668C159.753 23.5866 159.582 23.5459 159.4 23.5459C159.218 23.5459 159.045 23.5785 158.882 23.6436C158.723 23.7087 158.583 23.8031 158.462 23.9268C158.345 24.0472 158.252 24.1953 158.184 24.3711C158.116 24.5469 158.081 24.7454 158.081 24.9668C158.081 25.1589 158.116 25.3411 158.184 25.5137C158.252 25.6862 158.345 25.8376 158.462 25.9678C158.583 26.098 158.723 26.2005 158.882 26.2754C159.045 26.3503 159.218 26.3877 159.4 26.3877C159.582 26.3877 159.753 26.3486 159.913 26.2705C160.075 26.1891 160.217 26.0833 160.337 25.9531C160.458 25.8197 160.552 25.6683 160.621 25.499C160.692 25.3265 160.728 25.1491 160.728 24.9668ZM168.255 27.6279H167.932L167.415 26.9102C167.288 27.0241 167.153 27.1315 167.01 27.2324C166.87 27.3301 166.721 27.4163 166.565 27.4912C166.409 27.5628 166.248 27.6198 166.082 27.6621C165.919 27.7044 165.753 27.7256 165.584 27.7256C165.216 27.7256 164.869 27.6637 164.544 27.54C164.221 27.4163 163.938 27.2373 163.694 27.0029C163.453 26.7653 163.263 26.4756 163.123 26.1338C162.983 25.792 162.913 25.403 162.913 24.9668C162.913 24.5599 162.983 24.1872 163.123 23.8486C163.263 23.5068 163.453 23.2139 163.694 22.9697C163.938 22.7256 164.221 22.5368 164.544 22.4033C164.869 22.2666 165.216 22.1982 165.584 22.1982C165.753 22.1982 165.921 22.2194 166.087 22.2617C166.253 22.304 166.414 22.3626 166.57 22.4375C166.726 22.5124 166.874 22.6003 167.014 22.7012C167.158 22.8021 167.291 22.9111 167.415 23.0283L167.932 22.4082H168.255V27.6279ZM166.912 24.9668C166.912 24.7845 166.876 24.6087 166.804 24.4395C166.736 24.2669 166.642 24.1156 166.521 23.9854C166.401 23.8519 166.259 23.7461 166.096 23.668C165.937 23.5866 165.766 23.5459 165.584 23.5459C165.402 23.5459 165.229 23.5768 165.066 23.6387C164.907 23.7005 164.767 23.7917 164.646 23.9121C164.529 24.0326 164.436 24.1823 164.368 24.3613C164.3 24.5371 164.265 24.7389 164.265 24.9668C164.265 25.1947 164.3 25.3981 164.368 25.5771C164.436 25.7529 164.529 25.901 164.646 26.0215C164.767 26.1419 164.907 26.2331 165.066 26.2949C165.229 26.3568 165.402 26.3877 165.584 26.3877C165.766 26.3877 165.937 26.3486 166.096 26.2705C166.259 26.1891 166.401 26.0833 166.521 25.9531C166.642 25.8197 166.736 25.6683 166.804 25.499C166.876 25.3265 166.912 25.1491 166.912 24.9668ZM170.635 29.6201V28.2773L171.377 28.2871C171.507 28.2871 171.633 28.266 171.753 28.2236C171.874 28.1813 171.984 28.1227 172.085 28.0479C172.189 27.973 172.28 27.8835 172.359 27.7793C172.437 27.6784 172.5 27.5677 172.549 27.4473C172.403 27.5091 172.253 27.571 172.1 27.6328C171.95 27.6947 171.799 27.7256 171.646 27.7256C171.323 27.7256 171.021 27.6686 170.738 27.5547C170.454 27.4408 170.205 27.2796 169.99 27.0713C169.779 26.8597 169.611 26.6042 169.488 26.3047C169.367 26.002 169.307 25.6634 169.307 25.2891V22.3984H170.635V25.2891C170.635 25.4746 170.661 25.6374 170.713 25.7773C170.768 25.9141 170.842 26.0296 170.933 26.124C171.024 26.2152 171.13 26.2835 171.25 26.3291C171.374 26.3747 171.506 26.3975 171.646 26.3975C171.782 26.3975 171.911 26.3665 172.031 26.3047C172.155 26.2396 172.263 26.1549 172.354 26.0508C172.445 25.9466 172.516 25.8294 172.569 25.6992C172.621 25.5658 172.647 25.429 172.647 25.2891V22.3984H173.989V26.9688C173.986 27.3366 173.915 27.6816 173.775 28.0039C173.635 28.3262 173.443 28.6077 173.198 28.8486C172.958 29.0895 172.676 29.2799 172.354 29.4199C172.031 29.5599 171.686 29.6299 171.319 29.6299L170.635 29.6201Z" fill="black"/>
<path d="M142.922 34.2191C142.922 33.0738 143.85 32.1453 144.996 32.1453H174.03C175.175 32.1453 176.104 33.0738 176.104 34.2191H142.922Z" fill="#1A73E8"/>
</svg>
