<svg width="334" height="249" viewBox="0 0 334 249" fill="none" xmlns="http://www.w3.org/2000/svg">
<path d="M166.518 248.151C237.842 248.151 295.662 244.776 295.662 240.611C295.662 236.447 237.842 233.072 166.518 233.072C95.193 233.072 37.373 236.447 37.373 240.611C37.373 244.776 95.193 248.151 166.518 248.151Z" fill="#F5F5F5"/>
<path d="M288.872 3.08583e-10H269.736C268.172 3.08592e-10 266.673 0.621053 265.567 1.72653C264.462 2.832 263.841 4.33135 263.841 5.89473V22.5465C263.841 24.1099 264.462 25.6092 265.567 26.7147C266.673 27.8202 268.172 28.4412 269.736 28.4412H275.324L270.661 37.6929L279.32 28.4412H288.905C290.458 28.4307 291.944 27.8077 293.04 26.7077C294.137 25.6077 294.755 24.1195 294.76 22.5665V5.91471C294.763 5.13924 294.614 4.37071 294.319 3.65326C294.025 2.93581 293.592 2.28356 293.045 1.73398C292.498 1.1844 291.847 0.748301 291.131 0.450733C290.415 0.153165 289.647 -7.93854e-06 288.872 3.08583e-10Z" fill="#407BFF"/>
<path opacity="0.7" d="M288.872 3.08583e-10H269.736C268.172 3.08592e-10 266.673 0.621053 265.567 1.72653C264.462 2.832 263.841 4.33135 263.841 5.89473V22.5465C263.841 24.1099 264.462 25.6092 265.567 26.7147C266.673 27.8202 268.172 28.4412 269.736 28.4412H275.324L270.661 37.6929L279.32 28.4412H288.905C290.458 28.4307 291.944 27.8077 293.04 26.7077C294.137 25.6077 294.755 24.1195 294.76 22.5665V5.91471C294.763 5.13924 294.614 4.37071 294.319 3.65326C294.025 2.93581 293.592 2.28356 293.045 1.73398C292.498 1.1844 291.847 0.748301 291.131 0.450733C290.415 0.153165 289.647 -7.93854e-06 288.872 3.08583e-10Z" fill="white"/>
<path d="M286.017 20.8654C289.726 17.1561 289.726 11.1422 286.017 7.43294C282.308 3.72367 276.294 3.72368 272.584 7.43294C268.875 11.1422 268.875 17.1561 272.584 20.8654C276.294 24.5747 282.308 24.5746 286.017 20.8654Z" fill="#407BFF"/>
<path d="M278.308 18.3902C278.182 18.3905 278.057 18.3633 277.941 18.3104C277.826 18.2574 277.724 18.1801 277.642 18.0838L273.912 13.6944C273.762 13.5177 273.688 13.2887 273.707 13.0576C273.726 12.8265 273.835 12.6123 274.012 12.4622C274.189 12.312 274.418 12.2382 274.649 12.2569C274.88 12.2757 275.094 12.3854 275.244 12.5621L278.308 16.1655L283.364 10.2108C283.438 10.1234 283.529 10.0514 283.631 9.99905C283.733 9.94669 283.845 9.91497 283.959 9.90569C284.074 9.89641 284.189 9.90977 284.298 9.94498C284.407 9.9802 284.509 10.0366 284.596 10.1109C284.683 10.1853 284.755 10.2761 284.808 10.3783C284.86 10.4805 284.892 10.5919 284.901 10.7064C284.91 10.8208 284.897 10.9359 284.862 11.0452C284.827 11.1544 284.77 11.2557 284.696 11.3432L278.981 18.0838C278.898 18.1803 278.794 18.2576 278.678 18.3105C278.562 18.3634 278.436 18.3906 278.308 18.3902Z" fill="white"/>
<path d="M255.104 233.717H258.494C258.938 233.717 259.363 233.894 259.676 234.207C259.99 234.521 260.166 234.946 260.166 235.389V239.599H253.412V235.389C253.412 235.168 253.456 234.949 253.541 234.745C253.627 234.541 253.751 234.355 253.909 234.2C254.066 234.044 254.253 233.922 254.458 233.839C254.663 233.756 254.883 233.715 255.104 233.717Z" fill="#263238"/>
<path d="M255.358 235.969C255.358 235.689 254.233 207.8 243.995 178.786C234.61 152.197 215.401 119.166 177.182 112.845L177.621 110.181C195.092 113.079 210.205 121.538 222.534 135.312C232.352 146.276 240.425 160.623 246.513 177.941C256.87 207.334 257.996 235.576 258.003 235.889L255.358 235.969Z" fill="#263238"/>
<path d="M268.426 233.717H271.816C272.259 233.717 272.684 233.893 272.998 234.207C273.312 234.52 273.488 234.946 273.488 235.389V239.599H266.747V235.389C266.747 235.169 266.791 234.951 266.875 234.748C266.959 234.545 267.083 234.36 267.239 234.205C267.395 234.049 267.58 233.926 267.784 233.843C267.987 233.759 268.205 233.716 268.426 233.717Z" fill="#263238"/>
<path opacity="0.2" d="M255.104 233.717H258.494C258.938 233.717 259.363 233.894 259.676 234.207C259.99 234.521 260.166 234.946 260.166 235.389V239.599H253.412V235.389C253.412 235.168 253.456 234.949 253.541 234.745C253.627 234.541 253.751 234.355 253.909 234.2C254.066 234.044 254.253 233.922 254.458 233.839C254.663 233.756 254.883 233.715 255.104 233.717Z" fill="white"/>
<path opacity="0.2" d="M268.426 233.717H271.816C272.259 233.717 272.684 233.893 272.998 234.207C273.312 234.52 273.488 234.946 273.488 235.389V239.599H266.747V235.389C266.747 235.169 266.791 234.951 266.875 234.748C266.959 234.545 267.083 234.36 267.239 234.205C267.395 234.049 267.58 233.926 267.784 233.843C267.987 233.759 268.205 233.716 268.426 233.717Z" fill="white"/>
<path d="M268.785 236.755C268.061 230.525 266.129 224.495 263.097 219.004C256.436 207.148 245.713 200.441 231.226 199.155L231.459 196.491C250.708 198.189 260.566 209.006 265.428 217.805C268.652 223.6 270.69 229.978 271.423 236.568L268.785 236.755Z" fill="#263238"/>
<path d="M65.874 239.599H59.1334V235.389C59.1334 234.946 59.3095 234.52 59.6231 234.207C59.9366 233.893 60.3618 233.717 60.8052 233.717H64.1955C64.6389 233.717 65.0642 233.893 65.3777 234.207C65.6912 234.52 65.8674 234.946 65.8674 235.389V239.599H65.874Z" fill="#263238"/>
<path d="M61.2783 235.922C61.2783 235.616 61.4781 204.763 82.7658 183.449C96.3003 169.901 115.257 163.027 139.122 163.027V165.692C107.923 165.692 85.7964 177.461 73.3608 200.68C67.6642 211.591 64.4482 223.625 63.9426 235.922H61.2783Z" fill="#263238"/>
<path opacity="0.2" d="M65.874 239.599H59.1334V235.389C59.1334 234.946 59.3095 234.52 59.6231 234.207C59.9366 233.893 60.3618 233.717 60.8052 233.717H64.1955C64.6389 233.717 65.0642 233.893 65.3777 234.207C65.6912 234.52 65.8674 234.946 65.8674 235.389V239.599H65.874Z" fill="white"/>
<path d="M146.941 163.167H143.251V165.598H146.941V163.167Z" fill="#263238"/>
<path opacity="0.7" d="M146.941 163.167H143.251V165.598H146.941V163.167Z" fill="white"/>
<path d="M143.918 162.208H137.357C136.853 162.208 136.444 162.617 136.444 163.121V165.645C136.444 166.149 136.853 166.558 137.357 166.558H143.918C144.422 166.558 144.83 166.149 144.83 165.645V163.121C144.83 162.617 144.422 162.208 143.918 162.208Z" fill="#263238"/>
<path opacity="0.2" d="M143.918 162.208H137.357C136.853 162.208 136.444 162.617 136.444 163.121V165.645C136.444 166.149 136.853 166.558 137.357 166.558H143.918C144.422 166.558 144.83 166.149 144.83 165.645V163.121C144.83 162.617 144.422 162.208 143.918 162.208Z" fill="white"/>
<path d="M169.069 112.639H172.759V110.208H169.069V112.639Z" fill="#263238"/>
<path opacity="0.7" d="M169.069 112.639H172.759V110.208H169.069V112.639Z" fill="white"/>
<path d="M172.092 113.598H178.653C179.157 113.598 179.565 113.19 179.565 112.686V110.161C179.565 109.658 179.157 109.249 178.653 109.249H172.092C171.588 109.249 171.18 109.658 171.18 110.161V112.686C171.18 113.19 171.588 113.598 172.092 113.598Z" fill="#263238"/>
<path opacity="0.2" d="M172.092 113.598H178.653C179.157 113.598 179.565 113.19 179.565 112.686V110.161C179.565 109.658 179.157 109.249 178.653 109.249H172.092C171.588 109.249 171.18 109.658 171.18 110.161V112.686C171.18 113.19 171.588 113.598 172.092 113.598Z" fill="white"/>
<path d="M222.294 199.055H225.984V196.624H222.294V199.055Z" fill="#263238"/>
<path opacity="0.7" d="M222.294 199.055H225.984V196.624H222.294V199.055Z" fill="white"/>
<path d="M225.319 200.014H231.879C232.383 200.014 232.792 199.606 232.792 199.102V196.577C232.792 196.074 232.383 195.665 231.879 195.665H225.319C224.815 195.665 224.406 196.074 224.406 196.577V199.102C224.406 199.606 224.815 200.014 225.319 200.014Z" fill="#263238"/>
<path opacity="0.2" d="M225.319 200.014H231.879C232.383 200.014 232.792 199.606 232.792 199.102V196.577C232.792 196.074 232.383 195.665 231.879 195.665H225.319C224.815 195.665 224.406 196.074 224.406 196.577V199.102C224.406 199.606 224.815 200.014 225.319 200.014Z" fill="white"/>
<path d="M107.756 178.573L132.208 172.459C137.101 171.22 142.212 171.114 147.152 172.15C152.092 173.186 156.73 175.336 160.714 178.437C164.697 181.537 167.919 185.506 170.136 190.04C172.352 194.575 173.504 199.556 173.504 204.603V240.332H82.5322V210.758C82.5332 203.346 85.0184 196.147 89.5908 190.313C94.1631 184.479 100.559 180.346 107.756 178.573Z" fill="#407BFF"/>
<path opacity="0.2" d="M107.756 178.573L132.208 172.459C137.101 171.22 142.212 171.114 147.152 172.15C152.092 173.186 156.73 175.336 160.714 178.437C164.697 181.537 167.919 185.506 170.136 190.04C172.352 194.575 173.504 199.556 173.504 204.603V240.332H82.5322V210.758C82.5332 203.346 85.0184 196.147 89.5908 190.313C94.1631 184.479 100.559 180.346 107.756 178.573Z" fill="white"/>
<path opacity="0.2" d="M173.457 240.332H107.17V204.604C107.17 195.813 110.662 187.383 116.877 181.167C123.093 174.952 131.523 171.46 140.313 171.46C149.104 171.46 157.534 174.952 163.749 181.167C169.965 187.383 173.457 195.813 173.457 204.604V240.332Z" fill="black"/>
<path d="M180.643 118.431L133.4 123.08L140.26 192.787L187.503 188.139L180.643 118.431Z" fill="#263238"/>
<path d="M182.051 125.894L133.476 130.674C132.568 130.763 131.904 131.571 131.994 132.479L132.175 134.322C132.264 135.23 133.073 135.894 133.981 135.804L182.556 131.024C183.464 130.935 184.127 130.127 184.038 129.219L183.857 127.376C183.767 126.468 182.959 125.804 182.051 125.894Z" fill="#263238"/>
<path opacity="0.1" d="M182.051 125.894L133.476 130.674C132.568 130.763 131.904 131.571 131.994 132.479L132.175 134.322C132.264 135.23 133.073 135.894 133.981 135.804L182.556 131.024C183.464 130.935 184.127 130.127 184.038 129.219L183.857 127.376C183.767 126.468 182.959 125.804 182.051 125.894Z" fill="white"/>
<path d="M182.967 135.244L134.392 140.024C133.484 140.113 132.82 140.922 132.91 141.829L133.091 143.672C133.18 144.58 133.989 145.244 134.897 145.154L183.472 140.374C184.38 140.285 185.043 139.477 184.954 138.569L184.773 136.726C184.683 135.818 183.875 135.154 182.967 135.244Z" fill="#263238"/>
<path opacity="0.1" d="M182.967 135.244L134.392 140.024C133.484 140.113 132.82 140.922 132.91 141.829L133.091 143.672C133.18 144.58 133.989 145.244 134.897 145.154L183.472 140.374C184.38 140.285 185.043 139.477 184.954 138.569L184.773 136.726C184.683 135.818 183.875 135.154 182.967 135.244Z" fill="white"/>
<path d="M185.157 145.088L136.347 149.969C135.435 150.06 134.769 150.874 134.86 151.786L135.046 153.638C135.137 154.55 135.95 155.215 136.863 155.124L185.672 150.243C186.585 150.152 187.25 149.339 187.159 148.426L186.974 146.575C186.883 145.662 186.069 144.997 185.157 145.088Z" fill="#263238"/>
<path opacity="0.1" d="M185.157 145.088L136.347 149.969C135.435 150.06 134.769 150.874 134.86 151.786L135.046 153.638C135.137 154.55 135.95 155.215 136.863 155.124L185.672 150.243C186.585 150.152 187.25 149.339 187.159 148.426L186.974 146.575C186.883 145.662 186.069 144.997 185.157 145.088Z" fill="white"/>
<path d="M184.81 153.93L136.235 158.71C135.327 158.799 134.663 159.608 134.753 160.516L134.934 162.359C135.023 163.266 135.832 163.93 136.74 163.841L185.315 159.061C186.223 158.971 186.886 158.163 186.797 157.255L186.615 155.412C186.526 154.504 185.718 153.841 184.81 153.93Z" fill="#263238"/>
<path opacity="0.1" d="M184.81 153.93L136.235 158.71C135.327 158.799 134.663 159.608 134.753 160.516L134.934 162.359C135.023 163.266 135.832 163.93 136.74 163.841L185.315 159.061C186.223 158.971 186.886 158.163 186.797 157.255L186.615 155.412C186.526 154.504 185.718 153.841 184.81 153.93Z" fill="white"/>
<path d="M185.726 163.267L137.151 168.047C136.243 168.136 135.579 168.944 135.669 169.852L135.85 171.695C135.939 172.603 136.748 173.267 137.656 173.177L186.231 168.397C187.139 168.308 187.802 167.5 187.713 166.592L187.531 164.749C187.442 163.841 186.634 163.177 185.726 163.267Z" fill="#263238"/>
<path opacity="0.1" d="M185.726 163.267L137.151 168.047C136.243 168.136 135.579 168.944 135.669 169.852L135.85 171.695C135.939 172.603 136.748 173.267 137.656 173.177L186.231 168.397C187.139 168.308 187.802 167.5 187.713 166.592L187.531 164.749C187.442 163.841 186.634 163.177 185.726 163.267Z" fill="white"/>
<path d="M186.65 172.617L138.075 177.397C137.167 177.486 136.503 178.294 136.592 179.202L136.774 181.045C136.863 181.953 137.672 182.617 138.579 182.527L187.154 177.747C188.062 177.658 188.726 176.849 188.637 175.942L188.455 174.099C188.366 173.191 187.558 172.527 186.65 172.617Z" fill="#263238"/>
<path opacity="0.1" d="M186.65 172.617L138.075 177.397C137.167 177.486 136.503 178.294 136.592 179.202L136.774 181.045C136.863 181.953 137.672 182.617 138.579 182.527L187.154 177.747C188.062 177.658 188.726 176.849 188.637 175.942L188.455 174.099C188.366 173.191 187.558 172.527 186.65 172.617Z" fill="white"/>
<path d="M138.255 187.832H195.025V202.832H133.6V192.494C133.6 191.259 134.09 190.074 134.963 189.2C135.836 188.326 137.02 187.834 138.255 187.832Z" fill="#263238"/>
<path opacity="0.2" d="M138.255 187.832H195.025V202.832H133.6V192.494C133.6 191.259 134.09 190.074 134.963 189.2C135.836 188.326 137.02 187.834 138.255 187.832Z" fill="white"/>
<path d="M162.661 195.312V240.332H107.171V204.604C107.169 201.459 107.617 198.33 108.503 195.312H162.661Z" fill="#407BFF"/>
<path d="M221.527 178.574L197.076 172.459C192.188 171.234 187.086 171.14 182.156 172.182C177.226 173.225 172.599 175.377 168.625 178.476C164.652 181.575 161.437 185.538 159.225 190.066C157.013 194.593 155.862 199.565 155.859 204.604V240.332H246.758V210.758C246.756 203.345 244.269 196.147 239.695 190.313C235.122 184.479 228.725 180.346 221.527 178.574Z" fill="#407BFF"/>
<path opacity="0.2" d="M221.527 178.574L197.076 172.459C192.188 171.234 187.086 171.14 182.156 172.182C177.226 173.225 172.599 175.377 168.625 178.476C164.652 181.575 161.437 185.538 159.225 190.066C157.013 194.593 155.862 199.565 155.859 204.604V240.332H246.758V210.758C246.756 203.345 244.269 196.147 239.695 190.313C235.122 184.479 228.725 180.346 221.527 178.574Z" fill="white"/>
<path opacity="0.2" d="M213.608 177.615C222.398 177.615 230.828 181.106 237.044 187.322C243.259 193.538 246.751 201.968 246.751 210.758V240.325H180.464V210.758C180.464 201.968 183.956 193.538 190.171 187.322C196.387 181.106 204.817 177.615 213.608 177.615Z" fill="black"/>
<path d="M98.4581 210.332H158.964C161.898 210.332 164.712 211.497 166.787 213.572C168.862 215.647 170.027 218.461 170.027 221.395V240.331H87.4014V221.388C87.4031 218.456 88.5686 215.645 90.6418 213.572C92.7149 211.499 95.5263 210.333 98.4581 210.332Z" fill="#263238"/>
<path opacity="0.2" d="M98.4581 210.332H158.964C161.898 210.332 164.712 211.497 166.787 213.572C168.862 215.647 170.027 218.461 170.027 221.395V240.331H87.4014V221.388C87.4031 218.456 88.5686 215.645 90.6418 213.572C92.7149 211.499 95.5263 210.333 98.4581 210.332Z" fill="white"/>
<path opacity="0.2" d="M96.1868 213.962H144.257C146.589 213.962 148.825 214.888 150.474 216.537C152.123 218.186 153.049 220.422 153.049 222.754V240.331H87.4014V222.754C87.4014 220.423 88.3268 218.188 89.9742 216.539C91.6216 214.891 93.8562 213.963 96.1868 213.962Z" fill="white"/>
<path opacity="0.4" d="M216.698 189.997C206.447 189.997 198.135 199.102 198.135 210.332C198.135 221.562 206.447 230.66 216.698 230.66C226.956 230.66 235.268 221.562 235.268 210.332C235.268 199.102 226.956 189.997 216.698 189.997Z" fill="black"/>
<path d="M215.807 190.942C206.036 190.942 198.109 199.601 198.109 210.332C198.109 221.035 206.036 229.714 215.807 229.714C225.585 229.714 233.504 221.055 233.504 210.332C233.531 199.621 225.611 190.942 215.807 190.942Z" fill="#263238"/>
<path d="M214.727 201.287H219.043C223.279 201.287 226.71 205.337 226.71 210.332C226.71 215.328 223.279 219.371 219.043 219.371H214.727C210.491 219.371 207.061 215.321 207.061 210.332C207.061 205.343 210.477 201.287 214.727 201.287Z" fill="#407BFF"/>
<path opacity="0.4" d="M214.727 201.287H219.043C223.279 201.287 226.71 205.337 226.71 210.332C226.71 215.328 223.279 219.371 219.043 219.371H214.727C210.491 219.371 207.061 215.321 207.061 210.332C207.061 205.343 210.477 201.287 214.727 201.287Z" fill="black"/>
<path d="M219.044 219.37C223.282 219.37 226.717 215.323 226.717 210.332C226.717 205.34 223.282 201.293 219.044 201.293C214.806 201.293 211.371 205.34 211.371 210.332C211.371 215.323 214.806 219.37 219.044 219.37Z" fill="#407BFF"/>
<path opacity="0.4" d="M219.043 217.938C222.373 217.938 225.171 214.455 225.171 210.332C225.171 206.209 222.36 202.719 219.043 202.719C215.726 202.719 212.915 206.209 212.915 210.332C212.915 214.455 215.719 217.938 219.043 217.938Z" fill="black"/>
<path d="M218.403 217.139C221.381 217.139 223.892 214.015 223.892 210.325C223.892 206.635 221.381 203.504 218.403 203.504C215.426 203.504 212.915 206.628 212.915 210.325C212.915 214.022 215.426 217.139 218.403 217.139Z" fill="#263238"/>
<path opacity="0.4" d="M124.781 227.243C124.781 229.102 123.449 230.574 121.844 230.574C120.239 230.574 118.913 229.075 118.913 227.243C118.913 225.412 120.245 223.913 121.844 223.913C123.442 223.913 124.781 225.392 124.781 227.243Z" fill="black"/>
<path d="M124.781 227.243C124.729 227.647 124.561 228.027 124.297 228.338C124.034 228.649 123.687 228.878 123.297 228.996C122.908 229.115 122.492 229.119 122.1 229.007C121.708 228.896 121.357 228.673 121.088 228.367C120.82 228.061 120.645 227.684 120.585 227.281C120.526 226.878 120.583 226.466 120.752 226.095C120.92 225.724 121.192 225.41 121.534 225.189C121.877 224.969 122.276 224.852 122.683 224.852C123.277 224.895 123.83 225.17 124.223 225.617C124.615 226.065 124.816 226.649 124.781 227.243Z" fill="#407BFF"/>
<path opacity="0.4" d="M133.539 227.243C133.539 229.102 132.207 230.574 130.608 230.574C129.01 230.574 127.678 229.075 127.678 227.243C127.678 225.412 129.01 223.913 130.608 223.913C132.207 223.913 133.539 225.392 133.539 227.243Z" fill="black"/>
<path d="M133.541 227.243C133.487 227.645 133.319 228.024 133.056 228.332C132.793 228.641 132.446 228.868 132.058 228.985C131.669 229.102 131.256 229.105 130.866 228.993C130.476 228.881 130.126 228.659 129.859 228.354C129.592 228.048 129.418 227.672 129.359 227.271C129.3 226.87 129.358 226.46 129.526 226.09C129.694 225.721 129.964 225.408 130.306 225.188C130.647 224.968 131.044 224.852 131.45 224.852C132.043 224.895 132.595 225.17 132.987 225.618C133.379 226.065 133.578 226.65 133.541 227.243Z" fill="#407BFF"/>
<path opacity="0.4" d="M142.306 227.243C142.306 229.102 140.974 230.574 139.375 230.574C137.776 230.574 136.444 229.075 136.444 227.243C136.444 225.412 137.776 223.913 139.375 223.913C140.974 223.913 142.306 225.392 142.306 227.243Z" fill="black"/>
<path d="M142.305 227.243C142.251 227.645 142.083 228.024 141.82 228.332C141.557 228.641 141.21 228.868 140.822 228.985C140.433 229.102 140.019 229.105 139.629 228.993C139.239 228.881 138.89 228.659 138.623 228.354C138.356 228.048 138.182 227.672 138.123 227.271C138.064 226.87 138.122 226.46 138.29 226.09C138.457 225.721 138.728 225.408 139.069 225.188C139.41 224.968 139.808 224.852 140.213 224.852C140.806 224.896 141.357 225.172 141.749 225.619C142.14 226.067 142.34 226.65 142.305 227.243Z" fill="#407BFF"/>
<path opacity="0.4" d="M98.8716 223.893H95.8943C95.0482 223.893 94.3623 224.579 94.3623 225.425V229.068C94.3623 229.915 95.0482 230.6 95.8943 230.6H98.8716C99.7177 230.6 100.404 229.915 100.404 229.068V225.425C100.404 224.579 99.7177 223.893 98.8716 223.893Z" fill="black"/>
<path d="M99.1782 224.566H96.9336C96.2567 224.566 95.708 225.114 95.708 225.791V228.702C95.708 229.379 96.2567 229.928 96.9336 229.928H99.1782C99.8551 229.928 100.404 229.379 100.404 228.702V225.791C100.404 225.114 99.8551 224.566 99.1782 224.566Z" fill="#407BFF"/>
<path d="M132.128 114.278H172.285V144.537C172.285 146.062 171.68 147.524 170.602 148.602C169.524 149.68 168.062 150.285 166.537 150.285H132.128V114.278Z" fill="#263238"/>
<path opacity="0.2" d="M132.128 114.278H172.285V144.537C172.285 146.062 171.68 147.524 170.602 148.602C169.524 149.68 168.062 150.285 166.537 150.285H132.128V114.278Z" fill="white"/>
<path d="M147.741 142.406C147.269 142.406 146.802 142.313 146.366 142.132C145.93 141.951 145.534 141.686 145.201 141.352C144.867 141.018 144.603 140.621 144.423 140.185C144.243 139.749 144.15 139.281 144.151 138.809V123.716C144.15 123.244 144.243 122.776 144.423 122.34C144.603 121.904 144.867 121.507 145.201 121.173C145.534 120.839 145.93 120.574 146.366 120.393C146.802 120.212 147.269 120.119 147.741 120.119C148.695 120.119 149.61 120.498 150.285 121.173C150.959 121.847 151.338 122.762 151.338 123.716V138.809C151.338 139.763 150.959 140.678 150.285 141.352C149.61 142.027 148.695 142.406 147.741 142.406Z" fill="#263238"/>
<path d="M188.297 82.7725V112.566C188.297 114.938 187.355 117.214 185.677 118.891C183.999 120.569 181.724 121.511 179.352 121.511H156.559C153.109 121.511 144.15 124.309 144.15 127.759V139.748H105.191V90.339C105.191 86.903 105.867 83.5004 107.181 80.3258C108.496 77.1511 110.423 74.2665 112.853 71.8369C115.282 69.4072 118.167 67.4801 121.341 66.1656C124.516 64.851 127.919 64.1749 131.355 64.1758H169.7C174.633 64.1758 179.363 66.1351 182.85 69.6226C186.338 73.1102 188.297 77.8403 188.297 82.7725Z" fill="#407BFF"/>
<path opacity="0.2" d="M188.297 82.7725V112.566C188.297 114.938 187.355 117.214 185.677 118.891C183.999 120.569 181.724 121.511 179.352 121.511H156.559C153.109 121.511 144.15 124.309 144.15 127.759V139.748H105.191V90.339C105.191 86.903 105.867 83.5004 107.181 80.3258C108.496 77.1511 110.423 74.2665 112.853 71.8369C115.282 69.4072 118.167 67.4801 121.341 66.1656C124.516 64.851 127.919 64.1749 131.355 64.1758H169.7C174.633 64.1758 179.363 66.1351 182.85 69.6226C186.338 73.1102 188.297 77.8403 188.297 82.7725Z" fill="white"/>
<path d="M135.798 95.3682H131.489C127.252 95.3682 123.815 99.4179 123.815 104.413C123.815 109.409 127.252 113.452 131.489 113.452H135.798C140.034 113.452 143.471 109.402 143.471 104.413C143.471 99.4245 140.034 95.3682 135.798 95.3682Z" fill="#407BFF"/>
<path opacity="0.3" d="M131.489 113.452C135.726 113.452 139.162 109.405 139.162 104.413C139.162 99.4212 135.726 95.3745 131.489 95.3745C127.251 95.3745 123.815 99.4212 123.815 104.413C123.815 109.405 127.251 113.452 131.489 113.452Z" fill="white"/>
<path opacity="0.4" d="M131.489 112.02C128.159 112.02 125.361 108.536 125.361 104.413C125.361 100.29 128.165 96.8 131.489 96.8C134.813 96.8 137.617 100.284 137.617 104.413C137.617 108.543 134.813 112.02 131.489 112.02Z" fill="black"/>
<path d="M132.128 111.234C129.151 111.234 126.633 108.11 126.633 104.42C126.633 100.73 129.151 97.5991 132.128 97.5991C135.105 97.5991 137.616 100.723 137.616 104.42C137.616 108.116 135.105 111.234 132.128 111.234Z" fill="#263238"/>
<path opacity="0.5" d="M129.883 103.78C129.017 103.78 128.291 102.875 128.291 101.782C128.291 100.69 129.017 99.7839 129.883 99.7839C130.749 99.7839 131.475 100.69 131.475 101.782C131.475 102.875 130.755 103.78 129.883 103.78Z" fill="white"/>
<path d="M111.78 95.3682H107.471C103.235 95.3682 99.7979 99.4179 99.7979 104.413C99.7979 109.409 103.235 113.452 107.471 113.452H111.78C116.017 113.452 119.447 109.402 119.447 104.413C119.447 99.4245 116.017 95.3682 111.78 95.3682Z" fill="#407BFF"/>
<path opacity="0.3" d="M107.471 113.452C111.709 113.452 115.144 109.405 115.144 104.413C115.144 99.4212 111.709 95.3745 107.471 95.3745C103.233 95.3745 99.7979 99.4212 99.7979 104.413C99.7979 109.405 103.233 113.452 107.471 113.452Z" fill="white"/>
<path opacity="0.4" d="M107.469 112.02C104.139 112.02 101.335 108.536 101.335 104.413C101.335 100.29 104.146 96.8 107.469 96.8C110.793 96.8 113.597 100.284 113.597 104.413C113.597 108.543 110.787 112.02 107.469 112.02Z" fill="black"/>
<path d="M108.103 111.234C105.125 111.234 102.614 108.11 102.614 104.42C102.614 100.73 105.125 97.5991 108.103 97.5991C111.08 97.5991 113.598 100.723 113.598 104.42C113.598 108.116 111.08 111.234 108.103 111.234Z" fill="#263238"/>
<path opacity="0.5" d="M105.904 103.78C105.045 103.78 104.312 102.875 104.312 101.782C104.312 100.69 105.045 99.7839 105.904 99.7839C106.381 99.8518 106.817 100.089 107.132 100.453C107.447 100.816 107.621 101.281 107.621 101.762C107.621 102.243 107.447 102.708 107.132 103.072C106.817 103.435 106.381 103.673 105.904 103.74V103.78Z" fill="white"/>
<path d="M113.831 130.61H122.723V111.227H118.014L109.129 130.61H113.831Z" fill="#263238"/>
<path opacity="0.2" d="M113.831 130.61H109.129L118.014 111.227H122.723L113.831 130.61Z" fill="white"/>
<path d="M172.286 143.565V144.611C172.284 149.849 170.202 154.872 166.497 158.576C162.793 162.279 157.769 164.36 152.53 164.36H124.329C119.091 164.36 114.067 162.279 110.362 158.576C106.657 154.872 104.575 149.849 104.573 144.611V136.238H143.532V142.486C143.533 144.142 144.192 145.73 145.364 146.902C146.535 148.073 148.123 148.732 149.779 148.734H167.097C167.778 148.735 168.451 148.603 169.08 148.344C169.709 148.085 170.281 147.705 170.763 147.225C171.245 146.745 171.628 146.174 171.889 145.546C172.15 144.918 172.285 144.245 172.286 143.565Z" fill="#263238"/>
<path opacity="0.2" d="M172.286 143.565V144.611C172.284 149.849 170.202 154.872 166.497 158.576C162.793 162.279 157.769 164.36 152.53 164.36H124.329C119.091 164.36 114.067 162.279 110.362 158.576C106.657 154.872 104.575 149.849 104.573 144.611V136.238H143.532V142.486C143.533 144.142 144.192 145.73 145.364 146.902C146.535 148.073 148.123 148.732 149.779 148.734H167.097C167.778 148.735 168.451 148.603 169.08 148.344C169.709 148.085 170.281 147.705 170.763 147.225C171.245 146.745 171.628 146.174 171.889 145.546C172.15 144.918 172.285 144.245 172.286 143.565Z" fill="white"/>
<path opacity="0.2" d="M112.065 144.717C111.805 144.718 111.548 144.774 111.311 144.881C111.075 144.988 110.863 145.144 110.69 145.338C110.517 145.532 110.387 145.76 110.309 146.008C110.23 146.256 110.204 146.517 110.233 146.775C110.769 151.611 113.071 156.079 116.696 159.324C120.322 162.568 125.017 164.361 129.882 164.36H133.572C128.647 164.361 123.899 162.522 120.259 159.203C116.619 155.885 114.35 151.327 113.897 146.422C113.86 145.961 113.652 145.529 113.312 145.214C112.973 144.898 112.528 144.721 112.065 144.717Z" fill="black"/>
<path opacity="0.2" d="M121.305 144.717C121.045 144.718 120.789 144.774 120.552 144.881C120.315 144.988 120.103 145.144 119.93 145.338C119.758 145.532 119.628 145.76 119.549 146.008C119.47 146.256 119.444 146.517 119.473 146.775C120.01 151.61 122.31 156.077 125.934 159.322C129.558 162.566 134.252 164.36 139.116 164.36H142.806C137.882 164.358 133.136 162.517 129.498 159.2C125.86 155.882 123.592 151.325 123.137 146.422C123.1 145.961 122.892 145.529 122.553 145.214C122.214 144.898 121.768 144.721 121.305 144.717Z" fill="black"/>
<path opacity="0.2" d="M130.548 144.717C130.288 144.718 130.032 144.774 129.795 144.881C129.558 144.988 129.346 145.144 129.174 145.338C129.001 145.532 128.871 145.76 128.792 146.008C128.713 146.256 128.688 146.517 128.717 146.775C129.253 151.61 131.553 156.077 135.177 159.322C138.801 162.566 143.495 164.36 148.359 164.36H152.049C147.125 164.358 142.38 162.517 138.741 159.2C135.103 155.882 132.835 151.325 132.38 146.422C132.343 145.961 132.135 145.529 131.796 145.214C131.457 144.898 131.012 144.721 130.548 144.717Z" fill="black"/>
<path d="M143.791 139.721H104.733C104.431 139.722 104.131 139.663 103.852 139.548C103.573 139.433 103.319 139.264 103.106 139.05C102.892 138.837 102.723 138.583 102.608 138.304C102.493 138.025 102.434 137.726 102.435 137.424C102.434 137.121 102.493 136.822 102.608 136.542C102.723 136.263 102.892 136.008 103.105 135.794C103.319 135.58 103.572 135.41 103.852 135.294C104.131 135.179 104.43 135.119 104.733 135.119H143.791C144.402 135.119 144.988 135.362 145.421 135.794C145.853 136.226 146.096 136.812 146.096 137.424C146.096 137.726 146.036 138.025 145.92 138.304C145.804 138.584 145.634 138.837 145.42 139.051C145.206 139.264 144.952 139.433 144.672 139.548C144.393 139.664 144.093 139.722 143.791 139.721Z" fill="#263238"/>
<path opacity="0.4" d="M146.095 137.424C146.092 138.034 145.848 138.618 145.416 139.05C144.985 139.481 144.401 139.725 143.791 139.728H104.732C104.276 139.728 103.831 139.592 103.452 139.339C103.073 139.085 102.778 138.725 102.604 138.303C102.43 137.882 102.385 137.418 102.475 136.971C102.564 136.524 102.784 136.114 103.107 135.792C103.32 135.578 103.573 135.409 103.852 135.295C104.131 135.181 104.431 135.123 104.732 135.126H143.791C144.401 135.126 144.986 135.368 145.418 135.798C145.85 136.229 146.093 136.814 146.095 137.424Z" fill="white"/>
<path opacity="0.2" d="M146.096 137.424C146.092 138.034 145.848 138.618 145.417 139.049C144.985 139.481 144.401 139.725 143.791 139.728H143.538C142.927 139.728 142.341 139.485 141.908 139.053C141.476 138.621 141.233 138.035 141.233 137.424C141.233 136.812 141.476 136.226 141.908 135.794C142.341 135.362 142.927 135.119 143.538 135.119H143.791C144.094 135.119 144.393 135.179 144.673 135.294C144.953 135.41 145.207 135.58 145.421 135.794C145.635 136.008 145.804 136.262 145.92 136.542C146.036 136.821 146.096 137.121 146.096 137.424Z" fill="black"/>
<path d="M183.17 103.64V114.744C183.17 115.141 183.092 115.535 182.939 115.903C182.787 116.27 182.564 116.603 182.282 116.884C182 117.165 181.666 117.388 181.299 117.539C180.931 117.691 180.537 117.769 180.139 117.768H169.049C168.247 117.768 167.478 117.449 166.911 116.882C166.344 116.315 166.025 115.546 166.025 114.744V103.64C166.027 102.839 166.347 102.072 166.913 101.506C167.48 100.941 168.249 100.623 169.049 100.623H180.146C180.947 100.623 181.715 100.941 182.282 101.506C182.849 102.072 183.168 102.839 183.17 103.64Z" fill="#407BFF"/>
<path opacity="0.2" d="M183.169 103.64V114.744C183.169 115.141 183.09 115.535 182.938 115.903C182.785 116.27 182.562 116.603 182.281 116.884C181.999 117.165 181.665 117.388 181.297 117.539C180.93 117.691 180.536 117.769 180.138 117.768H172.745C171.943 117.768 171.174 117.449 170.606 116.882C170.039 116.315 169.721 115.546 169.721 114.744V103.64C169.721 103.244 169.799 102.851 169.951 102.484C170.103 102.118 170.326 101.785 170.607 101.504C170.888 101.224 171.221 101.002 171.588 100.851C171.955 100.7 172.348 100.622 172.745 100.623H180.145C180.946 100.623 181.714 100.941 182.281 101.506C182.848 102.072 183.167 102.84 183.169 103.64Z" fill="black"/>
<path d="M180.971 105.272H173.238C173.137 105.273 173.038 105.254 172.945 105.216C172.852 105.179 172.768 105.123 172.696 105.052C172.625 104.982 172.569 104.898 172.53 104.805C172.492 104.712 172.472 104.613 172.472 104.513C172.471 104.412 172.49 104.312 172.528 104.219C172.566 104.125 172.623 104.041 172.694 103.969C172.765 103.898 172.85 103.842 172.944 103.803C173.037 103.765 173.137 103.746 173.238 103.747H180.971C181.071 103.747 181.17 103.767 181.263 103.805C181.355 103.844 181.439 103.9 181.51 103.972C181.581 104.043 181.636 104.127 181.674 104.22C181.712 104.313 181.731 104.413 181.73 104.513C181.73 104.714 181.65 104.907 181.508 105.05C181.365 105.192 181.172 105.272 180.971 105.272Z" fill="#263238"/>
<path d="M180.971 108.396H173.238C173.137 108.397 173.037 108.378 172.944 108.34C172.85 108.302 172.765 108.245 172.694 108.174C172.623 108.103 172.566 108.018 172.528 107.925C172.49 107.831 172.471 107.731 172.472 107.63C172.472 107.53 172.492 107.431 172.53 107.338C172.569 107.246 172.625 107.162 172.696 107.091C172.768 107.021 172.852 106.965 172.945 106.927C173.038 106.889 173.137 106.87 173.238 106.871H180.971C181.172 106.871 181.365 106.951 181.508 107.094C181.65 107.236 181.73 107.429 181.73 107.63C181.731 107.731 181.712 107.83 181.674 107.923C181.636 108.016 181.581 108.1 181.51 108.172C181.439 108.243 181.355 108.299 181.263 108.338C181.17 108.377 181.071 108.396 180.971 108.396Z" fill="#263238"/>
<path d="M180.971 111.52H173.238C173.035 111.52 172.84 111.44 172.696 111.296C172.552 111.152 172.472 110.957 172.472 110.754C172.472 110.654 172.492 110.555 172.53 110.462C172.569 110.37 172.625 110.286 172.696 110.215C172.768 110.144 172.852 110.089 172.945 110.051C173.038 110.013 173.137 109.994 173.238 109.995H180.971C181.172 109.995 181.365 110.075 181.508 110.217C181.65 110.36 181.73 110.553 181.73 110.754C181.73 110.956 181.65 111.15 181.508 111.294C181.366 111.437 181.173 111.518 180.971 111.52Z" fill="#263238"/>
<path d="M180.971 114.644H173.238C173.035 114.644 172.84 114.563 172.696 114.42C172.552 114.276 172.472 114.081 172.472 113.878C172.472 113.778 172.492 113.678 172.53 113.586C172.569 113.493 172.625 113.409 172.696 113.339C172.768 113.268 172.852 113.212 172.945 113.175C173.038 113.137 173.137 113.118 173.238 113.119H180.971C181.172 113.119 181.365 113.199 181.508 113.341C181.65 113.483 181.73 113.677 181.73 113.878C181.73 114.08 181.65 114.274 181.508 114.417C181.366 114.561 181.173 114.642 180.971 114.644Z" fill="#263238"/>
<path d="M190.762 86.9154V89.9193C190.762 90.573 190.503 91.1998 190.041 91.662C189.578 92.1242 188.952 92.3838 188.298 92.3838V85.2036C188.298 80.1107 186.275 75.2263 182.674 71.6251C179.072 68.0239 174.188 66.0007 169.095 66.0007H153.862C151.247 66.0007 148.658 66.5163 146.243 67.5179C143.828 68.5195 141.634 69.9874 139.787 71.8378C137.94 73.6882 136.475 75.8847 135.478 78.3016C134.48 80.7184 133.969 83.3083 133.973 85.9229C133.973 87.3238 133.417 88.6673 132.426 89.6578C131.436 90.6484 130.092 91.2049 128.691 91.2049H110.041C108.912 91.2031 107.829 90.7532 107.031 89.954C106.233 89.1547 105.785 88.0714 105.785 86.942C105.787 80.0042 108.544 73.3512 113.451 68.4461C118.357 63.541 125.011 60.7854 131.948 60.7854H164.586C171.521 60.7836 178.173 63.5346 183.081 68.4339C187.989 73.3333 190.752 79.9804 190.762 86.9154Z" fill="#407BFF"/>
<path opacity="0.4" d="M180.464 86.1094C182.123 86.1094 183.528 87.8545 183.528 89.9126C183.528 91.9708 182.123 93.7226 180.464 93.7226C178.806 93.7226 177.4 91.9775 177.4 89.9126C177.4 87.8478 178.806 86.1094 180.464 86.1094Z" fill="black"/>
<path d="M180.145 86.509C181.63 86.509 182.889 88.0676 182.889 89.9127C182.889 91.7577 181.63 93.3229 180.145 93.3229C178.659 93.3229 177.4 91.7643 177.4 89.9127C177.4 88.061 178.659 86.509 180.145 86.509Z" fill="#263238"/>
<path opacity="0.4" d="M171.893 86.1094C173.552 86.1094 174.957 87.8545 174.957 89.9126C174.957 91.9708 173.552 93.7226 171.893 93.7226C170.235 93.7226 168.829 91.9775 168.829 89.9126C168.829 87.8478 170.228 86.1094 171.893 86.1094Z" fill="black"/>
<path d="M171.573 86.509C173.059 86.509 174.318 88.0676 174.318 89.9127C174.318 91.7577 173.059 93.3229 171.573 93.3229C170.088 93.3229 168.829 91.7643 168.829 89.9127C168.829 88.061 170.081 86.509 171.573 86.509Z" fill="#263238"/>
<path opacity="0.4" d="M163.313 86.1094C164.978 86.1094 166.377 87.8545 166.377 89.9126C166.377 91.9708 164.978 93.7226 163.313 93.7226C161.648 93.7226 160.249 91.9775 160.249 89.9126C160.249 87.8478 161.654 86.1094 163.313 86.1094Z" fill="black"/>
<path d="M162.993 86.509C164.485 86.509 165.744 88.0676 165.744 89.9127C165.744 91.7577 164.485 93.3229 162.993 93.3229C161.501 93.3229 160.249 91.7643 160.249 89.9127C160.249 88.061 161.508 86.509 162.993 86.509Z" fill="#263238"/>
<path opacity="0.4" d="M176.175 76.2583C177.84 76.2583 179.239 77.9967 179.239 80.0616C179.239 82.1264 177.84 83.8648 176.175 83.8648C174.51 83.8648 173.111 82.1197 173.111 80.0616C173.111 78.0034 174.51 76.2583 176.175 76.2583Z" fill="black"/>
<path d="M175.843 76.6514C177.335 76.6514 178.594 78.2166 178.594 80.0616C178.594 81.9067 177.335 83.4719 175.843 83.4719C174.351 83.4719 173.099 81.9067 173.099 80.0616C173.099 78.2166 174.371 76.6514 175.843 76.6514Z" fill="#263238"/>
<path opacity="0.4" d="M167.602 76.2583C169.261 76.2583 170.666 77.9967 170.666 80.0616C170.666 82.1264 169.261 83.8648 167.602 83.8648C165.943 83.8648 164.538 82.1197 164.538 80.0616C164.538 78.0034 165.943 76.2583 167.602 76.2583Z" fill="black"/>
<path d="M167.283 76.6514C168.768 76.6514 170.027 78.2166 170.027 80.0616C170.027 81.9067 168.768 83.4719 167.283 83.4719C165.797 83.4719 164.519 81.9266 164.519 80.0616C164.519 78.1966 165.797 76.6514 167.283 76.6514Z" fill="#263238"/>
</svg>
