<svg width="321" height="44" viewBox="0 0 321 44" fill="none" xmlns="http://www.w3.org/2000/svg">
<rect x="0.5" y="0.5" width="320" height="43" rx="7.5" stroke="#999999"/>
<g clip-path="url(#clip0_97_3065)">
<path fill-rule="evenodd" clip-rule="evenodd" d="M90 12C84.4771 12 80 16.4771 80 22C80 27.5229 84.4771 32 90 32C95.5229 32 100 27.5229 100 22C100 16.4771 95.5229 12 90 12ZM78 22C78 15.3726 83.3726 10 90 10C96.6274 10 102 15.3726 102 22C102 28.6274 96.6274 34 90 34C83.3726 34 78 28.6274 78 22Z" fill="black"/>
<path fill-rule="evenodd" clip-rule="evenodd" d="M87.5916 32.7358C87.4949 32.6109 87.4949 31.4986 87.5916 29.399C86.5557 29.4348 85.9012 29.3629 85.6281 29.1833C85.2185 28.914 84.8084 28.0833 84.4445 27.4979C84.0807 26.9125 83.2731 26.82 82.947 26.6891C82.6209 26.5582 82.539 26.0248 83.8456 26.4282C85.1522 26.8317 85.2159 27.9303 85.6281 28.1872C86.0403 28.4441 87.0257 28.3317 87.4724 28.1259C87.9191 27.9201 87.8862 27.1539 87.9658 26.8503C88.0665 26.567 87.7116 26.5041 87.7038 26.5018C87.2677 26.5018 84.9769 26.0036 84.3477 23.7853C83.7185 21.567 84.529 20.117 84.9614 19.4937C85.2497 19.0782 85.2242 18.1926 84.8849 16.8368C86.1167 16.6794 87.0673 17.0671 87.7367 18C87.7373 18.0054 88.6142 17.4786 90.0001 17.4786C91.386 17.4786 91.8776 17.9077 92.2571 18C92.6365 18.0924 92.94 16.367 95.2834 16.8368C94.7941 17.7984 94.3844 19 94.6971 19.4937C95.0099 19.9874 96.2372 21.5573 95.4833 23.7853C94.9807 25.2706 93.9926 26.1761 92.5192 26.5018C92.3502 26.5557 92.2657 26.6427 92.2657 26.7627C92.2657 26.9428 92.4942 26.9624 92.8232 27.8058C93.0426 28.3681 93.0585 29.974 92.8708 32.6235C92.3953 32.7445 92.0254 32.8258 91.761 32.8673C91.2923 32.941 90.7834 32.9823 90.2834 32.9982C89.7834 33.0142 89.6098 33.0124 88.9185 32.948C88.4577 32.9051 88.0154 32.8344 87.5916 32.7358Z" fill="black"/>
</g>
<path d="M114.469 26.668C113.946 26.668 113.47 26.6073 113.041 26.486C112.621 26.3647 112.252 26.2013 111.935 25.996C111.627 25.7813 111.37 25.5433 111.165 25.282C110.959 25.0207 110.815 24.7453 110.731 24.456L112.061 24.022C112.201 24.4047 112.467 24.736 112.859 25.016C113.251 25.296 113.731 25.4407 114.301 25.45C114.991 25.45 115.533 25.3147 115.925 25.044C116.326 24.764 116.527 24.3953 116.527 23.938C116.527 23.518 116.354 23.1773 116.009 22.916C115.663 22.6453 115.206 22.44 114.637 22.3L113.503 22.006C113.055 21.8847 112.644 21.712 112.271 21.488C111.907 21.264 111.617 20.9793 111.403 20.634C111.188 20.2887 111.081 19.8733 111.081 19.388C111.081 18.492 111.37 17.792 111.949 17.288C112.537 16.784 113.381 16.532 114.483 16.532C115.117 16.532 115.668 16.6347 116.135 16.84C116.601 17.036 116.984 17.2973 117.283 17.624C117.591 17.9507 117.81 18.31 117.941 18.702L116.611 19.15C116.452 18.73 116.181 18.394 115.799 18.142C115.416 17.8807 114.945 17.75 114.385 17.75C113.797 17.75 113.33 17.89 112.985 18.17C112.649 18.45 112.481 18.8327 112.481 19.318C112.481 19.7287 112.611 20.046 112.873 20.27C113.143 20.4847 113.503 20.648 113.951 20.76L115.085 21.04C115.999 21.264 116.704 21.6373 117.199 22.16C117.703 22.6733 117.955 23.238 117.955 23.854C117.955 24.386 117.819 24.8667 117.549 25.296C117.287 25.716 116.895 26.052 116.373 26.304C115.859 26.5467 115.225 26.668 114.469 26.668ZM119.639 26.5V19.5H120.969V26.5H119.639ZM120.311 18.016C120.096 18.016 119.91 17.9367 119.751 17.778C119.592 17.61 119.513 17.4187 119.513 17.204C119.513 16.98 119.592 16.7933 119.751 16.644C119.91 16.4853 120.096 16.406 120.311 16.406C120.535 16.406 120.722 16.4853 120.871 16.644C121.03 16.7933 121.109 16.98 121.109 17.204C121.109 17.4187 121.03 17.61 120.871 17.778C120.722 17.9367 120.535 18.016 120.311 18.016ZM125.816 29.482C125.349 29.482 124.925 29.4353 124.542 29.342C124.159 29.258 123.837 29.16 123.576 29.048C123.315 28.936 123.119 28.838 122.988 28.754L123.492 27.676C123.613 27.7507 123.786 27.8347 124.01 27.928C124.234 28.0307 124.495 28.1147 124.794 28.18C125.093 28.2547 125.424 28.292 125.788 28.292C126.217 28.292 126.6 28.2033 126.936 28.026C127.272 27.858 127.533 27.592 127.72 27.228C127.916 26.864 128.014 26.3973 128.014 25.828V19.5H129.344V25.8C129.344 26.6027 129.19 27.2747 128.882 27.816C128.583 28.3667 128.168 28.782 127.636 29.062C127.113 29.342 126.507 29.482 125.816 29.482ZM125.69 26.402C125.055 26.402 124.5 26.2573 124.024 25.968C123.557 25.6693 123.189 25.2587 122.918 24.736C122.657 24.204 122.526 23.5927 122.526 22.902C122.526 22.1833 122.657 21.558 122.918 21.026C123.189 20.494 123.557 20.0787 124.024 19.78C124.5 19.4813 125.055 19.332 125.69 19.332C126.269 19.332 126.773 19.4813 127.202 19.78C127.641 20.0787 127.977 20.4987 128.21 21.04C128.453 21.572 128.574 22.1973 128.574 22.916C128.574 23.6067 128.453 24.218 128.21 24.75C127.977 25.2727 127.641 25.6787 127.202 25.968C126.773 26.2573 126.269 26.402 125.69 26.402ZM126.026 25.282C126.418 25.282 126.759 25.1793 127.048 24.974C127.337 24.7593 127.566 24.4747 127.734 24.12C127.902 23.756 127.986 23.3407 127.986 22.874C127.986 22.4073 127.902 21.9967 127.734 21.642C127.566 21.2873 127.333 21.012 127.034 20.816C126.745 20.6107 126.404 20.508 126.012 20.508C125.601 20.508 125.237 20.6107 124.92 20.816C124.612 21.012 124.369 21.2873 124.192 21.642C124.015 21.9967 123.926 22.4073 123.926 22.874C123.926 23.3407 124.015 23.756 124.192 24.12C124.379 24.4747 124.626 24.7593 124.934 24.974C125.251 25.1793 125.615 25.282 126.026 25.282ZM131.19 26.5V19.5H132.436L132.52 20.788V26.5H131.19ZM136.034 26.5V22.916H137.364V26.5H136.034ZM136.034 22.916C136.034 22.2813 135.959 21.8007 135.81 21.474C135.67 21.138 135.469 20.9047 135.208 20.774C134.956 20.6433 134.662 20.5733 134.326 20.564C133.756 20.564 133.313 20.7647 132.996 21.166C132.678 21.5673 132.52 22.132 132.52 22.86H131.946C131.946 22.1227 132.053 21.4927 132.268 20.97C132.492 20.438 132.804 20.032 133.206 19.752C133.616 19.472 134.102 19.332 134.662 19.332C135.212 19.332 135.688 19.444 136.09 19.668C136.5 19.892 136.813 20.242 137.028 20.718C137.252 21.1847 137.364 21.8007 137.364 22.566V22.916H136.034ZM146.445 26.71C145.689 26.71 145.022 26.556 144.443 26.248C143.874 25.9307 143.431 25.492 143.113 24.932C142.796 24.3627 142.637 23.7093 142.637 22.972V16.7H144.009V22.972C144.009 23.4573 144.112 23.8867 144.317 24.26C144.532 24.6333 144.821 24.9227 145.185 25.128C145.559 25.3333 145.988 25.436 146.473 25.436C146.959 25.436 147.388 25.3333 147.761 25.128C148.135 24.9227 148.424 24.6333 148.629 24.26C148.835 23.8867 148.937 23.4573 148.937 22.972V16.7H150.323V22.972C150.323 23.7093 150.16 24.3627 149.833 24.932C149.516 25.492 149.063 25.9307 148.475 26.248C147.897 26.556 147.22 26.71 146.445 26.71ZM152.41 29.3V19.5H153.656L153.74 20.788V29.3H152.41ZM156.036 26.668C155.448 26.668 154.935 26.514 154.496 26.206C154.067 25.898 153.735 25.4687 153.502 24.918C153.269 24.3673 153.152 23.728 153.152 23C153.152 22.2627 153.269 21.6233 153.502 21.082C153.735 20.5313 154.067 20.102 154.496 19.794C154.935 19.486 155.448 19.332 156.036 19.332C156.661 19.332 157.212 19.486 157.688 19.794C158.164 20.102 158.533 20.5313 158.794 21.082C159.065 21.6233 159.2 22.2627 159.2 23C159.2 23.728 159.065 24.3673 158.794 24.918C158.533 25.4687 158.164 25.898 157.688 26.206C157.212 26.514 156.661 26.668 156.036 26.668ZM155.714 25.464C156.134 25.464 156.503 25.3613 156.82 25.156C157.137 24.9413 157.385 24.652 157.562 24.288C157.749 23.9147 157.842 23.4853 157.842 23C157.842 22.5147 157.753 22.09 157.576 21.726C157.399 21.3527 157.151 21.0633 156.834 20.858C156.517 20.6433 156.148 20.536 155.728 20.536C155.345 20.536 155 20.6433 154.692 20.858C154.393 21.0633 154.16 21.3527 153.992 21.726C153.824 22.0993 153.74 22.524 153.74 23C153.74 23.4853 153.824 23.9147 153.992 24.288C154.16 24.652 154.393 24.9413 154.692 25.156C154.991 25.3613 155.331 25.464 155.714 25.464ZM172.19 26.5L175.158 16.7H176.544L173.534 26.5H172.19ZM166.24 26.5L163.272 16.7H164.672L167.584 26.5H166.24ZM166.394 26.5L169.222 16.7H170.524L167.71 26.5H166.394ZM172.064 26.5L169.306 16.7H170.608L173.422 26.5H172.064ZM177.69 26.5V19.5H179.02V26.5H177.69ZM178.362 18.016C178.147 18.016 177.96 17.9367 177.802 17.778C177.643 17.61 177.564 17.4187 177.564 17.204C177.564 16.98 177.643 16.7933 177.802 16.644C177.96 16.4853 178.147 16.406 178.362 16.406C178.586 16.406 178.772 16.4853 178.922 16.644C179.08 16.7933 179.16 16.98 179.16 17.204C179.16 17.4187 179.08 17.61 178.922 17.778C178.772 17.9367 178.586 18.016 178.362 18.016ZM183.671 26.668C182.971 26.668 182.43 26.4907 182.047 26.136C181.664 25.772 181.473 25.254 181.473 24.582V17.316H182.803V24.386C182.803 24.7313 182.887 24.9973 183.055 25.184C183.232 25.3613 183.484 25.45 183.811 25.45C183.904 25.45 184.007 25.4313 184.119 25.394C184.231 25.3567 184.366 25.282 184.525 25.17L185.029 26.206C184.786 26.3647 184.553 26.4813 184.329 26.556C184.114 26.6307 183.895 26.668 183.671 26.668ZM180.283 20.648V19.5H184.791V20.648H180.283ZM186.356 26.5V16.7H187.672V26.5H186.356ZM191.2 26.5V22.916H192.516V26.5H191.2ZM191.2 22.916C191.2 22.2813 191.125 21.8007 190.976 21.474C190.827 21.138 190.621 20.9047 190.36 20.774C190.108 20.6433 189.819 20.5733 189.492 20.564C188.913 20.564 188.465 20.7647 188.148 21.166C187.831 21.5673 187.672 22.132 187.672 22.86H187.112C187.112 22.1227 187.219 21.4927 187.434 20.97C187.658 20.438 187.971 20.032 188.372 19.752C188.783 19.472 189.268 19.332 189.828 19.332C190.379 19.332 190.855 19.444 191.256 19.668C191.657 19.892 191.97 20.242 192.194 20.718C192.418 21.1847 192.525 21.8007 192.516 22.566V22.916H191.2ZM202.382 26.668C201.392 26.668 200.51 26.4533 199.736 26.024C198.97 25.5853 198.368 24.988 197.93 24.232C197.5 23.4667 197.286 22.594 197.286 21.614C197.286 20.6153 197.5 19.738 197.93 18.982C198.368 18.2167 198.97 17.6193 199.736 17.19C200.51 16.7513 201.392 16.532 202.382 16.532C202.923 16.532 203.441 16.6207 203.936 16.798C204.44 16.966 204.892 17.204 205.294 17.512C205.704 17.8107 206.036 18.156 206.288 18.548L205.182 19.276C204.995 18.9867 204.752 18.73 204.454 18.506C204.155 18.282 203.824 18.1093 203.46 17.988C203.105 17.8573 202.746 17.792 202.382 17.792C201.663 17.792 201.024 17.9553 200.464 18.282C199.913 18.6087 199.479 19.0567 199.162 19.626C198.844 20.1953 198.686 20.858 198.686 21.614C198.686 22.3513 198.84 23.0047 199.148 23.574C199.465 24.1433 199.904 24.5913 200.464 24.918C201.033 25.2447 201.682 25.408 202.41 25.408C202.998 25.408 203.52 25.2867 203.978 25.044C204.444 24.8013 204.808 24.4607 205.07 24.022C205.34 23.5833 205.476 23.0747 205.476 22.496L206.806 22.37C206.806 23.238 206.614 23.994 206.232 24.638C205.858 25.282 205.34 25.7813 204.678 26.136C204.015 26.4907 203.25 26.668 202.382 26.668ZM203.096 22.58V21.432H206.806V22.44L206.106 22.58H203.096ZM208.274 26.5V19.5H209.604V26.5H208.274ZM208.946 18.016C208.731 18.016 208.544 17.9367 208.386 17.778C208.227 17.61 208.148 17.4187 208.148 17.204C208.148 16.98 208.227 16.7933 208.386 16.644C208.544 16.4853 208.731 16.406 208.946 16.406C209.17 16.406 209.356 16.4853 209.506 16.644C209.664 16.7933 209.744 16.98 209.744 17.204C209.744 17.4187 209.664 17.61 209.506 17.778C209.356 17.9367 209.17 18.016 208.946 18.016ZM214.255 26.668C213.555 26.668 213.014 26.4907 212.631 26.136C212.248 25.772 212.057 25.254 212.057 24.582V17.316H213.387V24.386C213.387 24.7313 213.471 24.9973 213.639 25.184C213.816 25.3613 214.068 25.45 214.395 25.45C214.488 25.45 214.591 25.4313 214.703 25.394C214.815 25.3567 214.95 25.282 215.109 25.17L215.613 26.206C215.37 26.3647 215.137 26.4813 214.913 26.556C214.698 26.6307 214.479 26.668 214.255 26.668ZM210.867 20.648V19.5H215.375V20.648H210.867ZM216.94 26.5V16.7H218.256V26.5H216.94ZM221.784 26.5V22.916H223.1V26.5H221.784ZM221.784 22.916C221.784 22.2813 221.709 21.8007 221.56 21.474C221.411 21.138 221.205 20.9047 220.944 20.774C220.692 20.6433 220.403 20.5733 220.076 20.564C219.497 20.564 219.049 20.7647 218.732 21.166C218.415 21.5673 218.256 22.132 218.256 22.86H217.696C217.696 22.1227 217.803 21.4927 218.018 20.97C218.242 20.438 218.555 20.032 218.956 19.752C219.367 19.472 219.852 19.332 220.412 19.332C220.963 19.332 221.439 19.444 221.84 19.668C222.241 19.892 222.554 20.242 222.778 20.718C223.002 21.1847 223.109 21.8007 223.1 22.566V22.916H221.784ZM229.534 26.5L229.45 25.212V19.5H230.766V26.5H229.534ZM224.606 23.084V19.5H225.936V23.084H224.606ZM225.936 23.084C225.936 23.7093 226.006 24.19 226.146 24.526C226.295 24.862 226.5 25.0953 226.762 25.226C227.023 25.3567 227.317 25.4267 227.644 25.436C228.213 25.436 228.656 25.2353 228.974 24.834C229.291 24.4327 229.45 23.868 229.45 23.14H230.024C230.024 23.8773 229.912 24.512 229.688 25.044C229.473 25.5667 229.165 25.968 228.764 26.248C228.362 26.528 227.872 26.668 227.294 26.668C226.752 26.668 226.276 26.556 225.866 26.332C225.464 26.108 225.152 25.758 224.928 25.282C224.713 24.806 224.606 24.19 224.606 23.434V23.084H225.936ZM232.621 26.5V16.7H233.951V25.198L233.881 26.5H232.621ZM236.247 26.668C235.659 26.668 235.146 26.514 234.707 26.206C234.278 25.898 233.947 25.4687 233.713 24.918C233.48 24.3673 233.363 23.728 233.363 23C233.363 22.2627 233.48 21.6233 233.713 21.082C233.947 20.5313 234.278 20.102 234.707 19.794C235.146 19.486 235.659 19.332 236.247 19.332C236.873 19.332 237.423 19.486 237.899 19.794C238.375 20.102 238.744 20.5313 239.005 21.082C239.276 21.6233 239.411 22.2627 239.411 23C239.411 23.728 239.276 24.3673 239.005 24.918C238.744 25.4687 238.375 25.898 237.899 26.206C237.423 26.514 236.873 26.668 236.247 26.668ZM235.925 25.464C236.345 25.464 236.714 25.3613 237.031 25.156C237.349 24.9413 237.596 24.652 237.773 24.288C237.96 23.9147 238.053 23.4853 238.053 23C238.053 22.5147 237.965 22.09 237.787 21.726C237.61 21.3527 237.363 21.0633 237.045 20.858C236.728 20.6433 236.359 20.536 235.939 20.536C235.557 20.536 235.211 20.6433 234.903 20.858C234.605 21.0633 234.371 21.3527 234.203 21.726C234.035 22.0993 233.951 22.524 233.951 23C233.951 23.4853 234.035 23.9147 234.203 24.288C234.371 24.652 234.605 24.9413 234.903 25.156C235.202 25.3613 235.543 25.464 235.925 25.464Z" fill="#737373"/>
<defs>
<clipPath id="clip0_97_3065">
<rect width="24" height="24" fill="white" transform="translate(78 10)"/>
</clipPath>
</defs>
</svg>
