<svg width="321" height="44" viewBox="0 0 321 44" fill="none" xmlns="http://www.w3.org/2000/svg">
<rect x="0.5" y="0.5" width="320" height="43" rx="7.5" stroke="#999999"/>
<path opacity="0.987" fill-rule="evenodd" clip-rule="evenodd" d="M88.8135 11.5915C89.901 11.47 90.5445 11.47 91.713 11.5915C93.7814 11.8976 95.6988 12.8537 97.188 14.3215C96.1817 15.2727 95.1886 16.2378 94.209 17.2165C92.333 15.6265 90.239 15.2595 87.927 16.1155C86.231 16.8955 85.05 18.1595 84.384 19.9075C83.2957 19.0972 82.2215 18.2681 81.162 17.4205C81.0884 17.3817 81.0043 17.3675 80.922 17.38C82.605 14.135 85.235 12.205 88.812 11.59" fill="#F44336"/>
<path opacity="0.997" fill-rule="evenodd" clip-rule="evenodd" d="M80.919 17.38C81.004 17.367 81.0845 17.3805 81.1605 17.4205C82.22 18.2681 83.2942 19.0973 84.3825 19.9075C84.2112 20.5886 84.1033 21.2841 84.06 21.985C84.097 22.663 84.2045 23.3285 84.3825 23.9815L81 26.674C79.527 23.596 79.5 20.498 80.919 17.38Z" fill="#FFC107"/>
<path opacity="0.999" fill-rule="evenodd" clip-rule="evenodd" d="M97.0275 29.935C95.9743 29.0061 94.8717 28.1349 93.7245 27.325C94.8745 26.513 95.5725 25.399 95.8185 23.983H90.183V20.0695C93.433 20.0425 96.6815 20.07 99.9285 20.152C100.545 23.497 99.833 26.513 97.794 29.2C97.5516 29.4577 97.2947 29.703 97.0275 29.935Z" fill="#448AFF"/>
<path opacity="0.993" fill-rule="evenodd" clip-rule="evenodd" d="M84.3825 23.983C85.6125 27.04 87.8675 28.467 91.1475 28.264C92.0682 28.1574 92.951 27.8358 93.7245 27.325C94.8725 28.137 95.9735 29.007 97.0275 29.935C95.3575 31.4357 93.2282 32.3261 90.987 32.461C90.4778 32.5017 89.9662 32.5017 89.457 32.461C85.639 32.011 82.82 30.082 81 26.674L84.3825 23.983Z" fill="#43A047"/>
<path d="M114.629 26.668C114.106 26.668 113.63 26.6073 113.201 26.486C112.781 26.3647 112.412 26.2013 112.095 25.996C111.787 25.7813 111.53 25.5433 111.325 25.282C111.119 25.0207 110.975 24.7453 110.891 24.456L112.221 24.022C112.361 24.4047 112.627 24.736 113.019 25.016C113.411 25.296 113.891 25.4407 114.461 25.45C115.151 25.45 115.693 25.3147 116.085 25.044C116.486 24.764 116.687 24.3953 116.687 23.938C116.687 23.518 116.514 23.1773 116.169 22.916C115.823 22.6453 115.366 22.44 114.797 22.3L113.663 22.006C113.215 21.8847 112.804 21.712 112.431 21.488C112.067 21.264 111.777 20.9793 111.563 20.634C111.348 20.2887 111.241 19.8733 111.241 19.388C111.241 18.492 111.53 17.792 112.109 17.288C112.697 16.784 113.541 16.532 114.643 16.532C115.277 16.532 115.828 16.6347 116.295 16.84C116.761 17.036 117.144 17.2973 117.443 17.624C117.751 17.9507 117.97 18.31 118.101 18.702L116.771 19.15C116.612 18.73 116.341 18.394 115.959 18.142C115.576 17.8807 115.105 17.75 114.545 17.75C113.957 17.75 113.49 17.89 113.145 18.17C112.809 18.45 112.641 18.8327 112.641 19.318C112.641 19.7287 112.771 20.046 113.033 20.27C113.303 20.4847 113.663 20.648 114.111 20.76L115.245 21.04C116.159 21.264 116.864 21.6373 117.359 22.16C117.863 22.6733 118.115 23.238 118.115 23.854C118.115 24.386 117.979 24.8667 117.709 25.296C117.447 25.716 117.055 26.052 116.533 26.304C116.019 26.5467 115.385 26.668 114.629 26.668ZM119.799 26.5V19.5H121.129V26.5H119.799ZM120.471 18.016C120.256 18.016 120.07 17.9367 119.911 17.778C119.752 17.61 119.673 17.4187 119.673 17.204C119.673 16.98 119.752 16.7933 119.911 16.644C120.07 16.4853 120.256 16.406 120.471 16.406C120.695 16.406 120.882 16.4853 121.031 16.644C121.19 16.7933 121.269 16.98 121.269 17.204C121.269 17.4187 121.19 17.61 121.031 17.778C120.882 17.9367 120.695 18.016 120.471 18.016ZM125.976 29.482C125.51 29.482 125.085 29.4353 124.702 29.342C124.32 29.258 123.998 29.16 123.736 29.048C123.475 28.936 123.279 28.838 123.148 28.754L123.652 27.676C123.774 27.7507 123.946 27.8347 124.17 27.928C124.394 28.0307 124.656 28.1147 124.954 28.18C125.253 28.2547 125.584 28.292 125.948 28.292C126.378 28.292 126.76 28.2033 127.096 28.026C127.432 27.858 127.694 27.592 127.88 27.228C128.076 26.864 128.174 26.3973 128.174 25.828V19.5H129.504V25.8C129.504 26.6027 129.35 27.2747 129.042 27.816C128.744 28.3667 128.328 28.782 127.796 29.062C127.274 29.342 126.667 29.482 125.976 29.482ZM125.85 26.402C125.216 26.402 124.66 26.2573 124.184 25.968C123.718 25.6693 123.349 25.2587 123.078 24.736C122.817 24.204 122.686 23.5927 122.686 22.902C122.686 22.1833 122.817 21.558 123.078 21.026C123.349 20.494 123.718 20.0787 124.184 19.78C124.66 19.4813 125.216 19.332 125.85 19.332C126.429 19.332 126.933 19.4813 127.362 19.78C127.801 20.0787 128.137 20.4987 128.37 21.04C128.613 21.572 128.734 22.1973 128.734 22.916C128.734 23.6067 128.613 24.218 128.37 24.75C128.137 25.2727 127.801 25.6787 127.362 25.968C126.933 26.2573 126.429 26.402 125.85 26.402ZM126.186 25.282C126.578 25.282 126.919 25.1793 127.208 24.974C127.498 24.7593 127.726 24.4747 127.894 24.12C128.062 23.756 128.146 23.3407 128.146 22.874C128.146 22.4073 128.062 21.9967 127.894 21.642C127.726 21.2873 127.493 21.012 127.194 20.816C126.905 20.6107 126.564 20.508 126.172 20.508C125.762 20.508 125.398 20.6107 125.08 20.816C124.772 21.012 124.53 21.2873 124.352 21.642C124.175 21.9967 124.086 22.4073 124.086 22.874C124.086 23.3407 124.175 23.756 124.352 24.12C124.539 24.4747 124.786 24.7593 125.094 24.974C125.412 25.1793 125.776 25.282 126.186 25.282ZM131.35 26.5V19.5H132.596L132.68 20.788V26.5H131.35ZM136.194 26.5V22.916H137.524V26.5H136.194ZM136.194 22.916C136.194 22.2813 136.119 21.8007 135.97 21.474C135.83 21.138 135.629 20.9047 135.368 20.774C135.116 20.6433 134.822 20.5733 134.486 20.564C133.916 20.564 133.473 20.7647 133.156 21.166C132.838 21.5673 132.68 22.132 132.68 22.86H132.106C132.106 22.1227 132.213 21.4927 132.428 20.97C132.652 20.438 132.964 20.032 133.366 19.752C133.776 19.472 134.262 19.332 134.822 19.332C135.372 19.332 135.848 19.444 136.25 19.668C136.66 19.892 136.973 20.242 137.188 20.718C137.412 21.1847 137.524 21.8007 137.524 22.566V22.916H136.194ZM146.605 26.71C145.849 26.71 145.182 26.556 144.603 26.248C144.034 25.9307 143.591 25.492 143.273 24.932C142.956 24.3627 142.797 23.7093 142.797 22.972V16.7H144.169V22.972C144.169 23.4573 144.272 23.8867 144.477 24.26C144.692 24.6333 144.981 24.9227 145.345 25.128C145.719 25.3333 146.148 25.436 146.633 25.436C147.119 25.436 147.548 25.3333 147.921 25.128C148.295 24.9227 148.584 24.6333 148.789 24.26C148.995 23.8867 149.097 23.4573 149.097 22.972V16.7H150.483V22.972C150.483 23.7093 150.32 24.3627 149.993 24.932C149.676 25.492 149.223 25.9307 148.635 26.248C148.057 26.556 147.38 26.71 146.605 26.71ZM152.57 29.3V19.5H153.816L153.9 20.788V29.3H152.57ZM156.196 26.668C155.608 26.668 155.095 26.514 154.656 26.206C154.227 25.898 153.896 25.4687 153.662 24.918C153.429 24.3673 153.312 23.728 153.312 23C153.312 22.2627 153.429 21.6233 153.662 21.082C153.896 20.5313 154.227 20.102 154.656 19.794C155.095 19.486 155.608 19.332 156.196 19.332C156.822 19.332 157.372 19.486 157.848 19.794C158.324 20.102 158.693 20.5313 158.954 21.082C159.225 21.6233 159.36 22.2627 159.36 23C159.36 23.728 159.225 24.3673 158.954 24.918C158.693 25.4687 158.324 25.898 157.848 26.206C157.372 26.514 156.822 26.668 156.196 26.668ZM155.874 25.464C156.294 25.464 156.663 25.3613 156.98 25.156C157.298 24.9413 157.545 24.652 157.722 24.288C157.909 23.9147 158.002 23.4853 158.002 23C158.002 22.5147 157.914 22.09 157.736 21.726C157.559 21.3527 157.312 21.0633 156.994 20.858C156.677 20.6433 156.308 20.536 155.888 20.536C155.506 20.536 155.16 20.6433 154.852 20.858C154.554 21.0633 154.32 21.3527 154.152 21.726C153.984 22.0993 153.9 22.524 153.9 23C153.9 23.4853 153.984 23.9147 154.152 24.288C154.32 24.652 154.554 24.9413 154.852 25.156C155.151 25.3613 155.492 25.464 155.874 25.464ZM172.351 26.5L175.319 16.7H176.705L173.695 26.5H172.351ZM166.401 26.5L163.433 16.7H164.833L167.745 26.5H166.401ZM166.555 26.5L169.383 16.7H170.685L167.871 26.5H166.555ZM172.225 26.5L169.467 16.7H170.769L173.583 26.5H172.225ZM177.85 26.5V19.5H179.18V26.5H177.85ZM178.522 18.016C178.307 18.016 178.12 17.9367 177.962 17.778C177.803 17.61 177.724 17.4187 177.724 17.204C177.724 16.98 177.803 16.7933 177.962 16.644C178.12 16.4853 178.307 16.406 178.522 16.406C178.746 16.406 178.932 16.4853 179.082 16.644C179.24 16.7933 179.32 16.98 179.32 17.204C179.32 17.4187 179.24 17.61 179.082 17.778C178.932 17.9367 178.746 18.016 178.522 18.016ZM183.831 26.668C183.131 26.668 182.59 26.4907 182.207 26.136C181.824 25.772 181.633 25.254 181.633 24.582V17.316H182.963V24.386C182.963 24.7313 183.047 24.9973 183.215 25.184C183.392 25.3613 183.644 25.45 183.971 25.45C184.064 25.45 184.167 25.4313 184.279 25.394C184.391 25.3567 184.526 25.282 184.685 25.17L185.189 26.206C184.946 26.3647 184.713 26.4813 184.489 26.556C184.274 26.6307 184.055 26.668 183.831 26.668ZM180.443 20.648V19.5H184.951V20.648H180.443ZM186.516 26.5V16.7H187.832V26.5H186.516ZM191.36 26.5V22.916H192.676V26.5H191.36ZM191.36 22.916C191.36 22.2813 191.285 21.8007 191.136 21.474C190.987 21.138 190.781 20.9047 190.52 20.774C190.268 20.6433 189.979 20.5733 189.652 20.564C189.073 20.564 188.625 20.7647 188.308 21.166C187.991 21.5673 187.832 22.132 187.832 22.86H187.272C187.272 22.1227 187.379 21.4927 187.594 20.97C187.818 20.438 188.131 20.032 188.532 19.752C188.943 19.472 189.428 19.332 189.988 19.332C190.539 19.332 191.015 19.444 191.416 19.668C191.817 19.892 192.13 20.242 192.354 20.718C192.578 21.1847 192.685 21.8007 192.676 22.566V22.916H191.36ZM202.542 26.668C201.552 26.668 200.67 26.4533 199.896 26.024C199.13 25.5853 198.528 24.988 198.09 24.232C197.66 23.4667 197.446 22.594 197.446 21.614C197.446 20.6153 197.66 19.738 198.09 18.982C198.528 18.2167 199.13 17.6193 199.896 17.19C200.67 16.7513 201.552 16.532 202.542 16.532C203.083 16.532 203.601 16.6207 204.096 16.798C204.6 16.966 205.052 17.204 205.454 17.512C205.864 17.8107 206.196 18.156 206.448 18.548L205.342 19.276C205.155 18.9867 204.912 18.73 204.614 18.506C204.315 18.282 203.984 18.1093 203.62 17.988C203.265 17.8573 202.906 17.792 202.542 17.792C201.823 17.792 201.184 17.9553 200.624 18.282C200.073 18.6087 199.639 19.0567 199.322 19.626C199.004 20.1953 198.846 20.858 198.846 21.614C198.846 22.3513 199 23.0047 199.308 23.574C199.625 24.1433 200.064 24.5913 200.624 24.918C201.193 25.2447 201.842 25.408 202.57 25.408C203.158 25.408 203.68 25.2867 204.138 25.044C204.604 24.8013 204.968 24.4607 205.23 24.022C205.5 23.5833 205.636 23.0747 205.636 22.496L206.966 22.37C206.966 23.238 206.774 23.994 206.392 24.638C206.018 25.282 205.5 25.7813 204.838 26.136C204.175 26.4907 203.41 26.668 202.542 26.668ZM203.256 22.58V21.432H206.966V22.44L206.266 22.58H203.256ZM211.514 26.668C210.814 26.668 210.198 26.514 209.666 26.206C209.134 25.8887 208.714 25.4547 208.406 24.904C208.107 24.3533 207.958 23.7187 207.958 23C207.958 22.2813 208.107 21.6467 208.406 21.096C208.704 20.5453 209.12 20.116 209.652 19.808C210.184 19.4907 210.795 19.332 211.486 19.332C212.176 19.332 212.788 19.4907 213.32 19.808C213.852 20.116 214.267 20.5453 214.566 21.096C214.864 21.6467 215.014 22.2813 215.014 23C215.014 23.7187 214.864 24.3533 214.566 24.904C214.267 25.4547 213.852 25.8887 213.32 26.206C212.797 26.514 212.195 26.668 211.514 26.668ZM211.514 25.45C211.934 25.45 212.307 25.3473 212.634 25.142C212.96 24.9273 213.212 24.638 213.39 24.274C213.576 23.91 213.67 23.4853 213.67 23C213.67 22.5147 213.576 22.09 213.39 21.726C213.212 21.362 212.956 21.0773 212.62 20.872C212.284 20.6573 211.906 20.55 211.486 20.55C211.056 20.55 210.678 20.6573 210.352 20.872C210.025 21.0773 209.768 21.362 209.582 21.726C209.395 22.09 209.302 22.5147 209.302 23C209.302 23.4853 209.395 23.91 209.582 24.274C209.768 24.638 210.03 24.9273 210.366 25.142C210.702 25.3473 211.084 25.45 211.514 25.45ZM219.635 26.668C218.935 26.668 218.319 26.514 217.787 26.206C217.255 25.8887 216.835 25.4547 216.527 24.904C216.228 24.3533 216.079 23.7187 216.079 23C216.079 22.2813 216.228 21.6467 216.527 21.096C216.826 20.5453 217.241 20.116 217.773 19.808C218.305 19.4907 218.916 19.332 219.607 19.332C220.298 19.332 220.909 19.4907 221.441 19.808C221.973 20.116 222.388 20.5453 222.687 21.096C222.986 21.6467 223.135 22.2813 223.135 23C223.135 23.7187 222.986 24.3533 222.687 24.904C222.388 25.4547 221.973 25.8887 221.441 26.206C220.918 26.514 220.316 26.668 219.635 26.668ZM219.635 25.45C220.055 25.45 220.428 25.3473 220.755 25.142C221.082 24.9273 221.334 24.638 221.511 24.274C221.698 23.91 221.791 23.4853 221.791 23C221.791 22.5147 221.698 22.09 221.511 21.726C221.334 21.362 221.077 21.0773 220.741 20.872C220.405 20.6573 220.027 20.55 219.607 20.55C219.178 20.55 218.8 20.6573 218.473 20.872C218.146 21.0773 217.89 21.362 217.703 21.726C217.516 22.09 217.423 22.5147 217.423 23C217.423 23.4853 217.516 23.91 217.703 24.274C217.89 24.638 218.151 24.9273 218.487 25.142C218.823 25.3473 219.206 25.45 219.635 25.45ZM227.49 29.482C227.023 29.482 226.599 29.4353 226.216 29.342C225.833 29.258 225.511 29.16 225.25 29.048C224.989 28.936 224.793 28.838 224.662 28.754L225.166 27.676C225.287 27.7507 225.46 27.8347 225.684 27.928C225.908 28.0307 226.169 28.1147 226.468 28.18C226.767 28.2547 227.098 28.292 227.462 28.292C227.891 28.292 228.274 28.2033 228.61 28.026C228.946 27.858 229.207 27.592 229.394 27.228C229.59 26.864 229.688 26.3973 229.688 25.828V19.5H231.018V25.8C231.018 26.6027 230.864 27.2747 230.556 27.816C230.257 28.3667 229.842 28.782 229.31 29.062C228.787 29.342 228.181 29.482 227.49 29.482ZM227.364 26.402C226.729 26.402 226.174 26.2573 225.698 25.968C225.231 25.6693 224.863 25.2587 224.592 24.736C224.331 24.204 224.2 23.5927 224.2 22.902C224.2 22.1833 224.331 21.558 224.592 21.026C224.863 20.494 225.231 20.0787 225.698 19.78C226.174 19.4813 226.729 19.332 227.364 19.332C227.943 19.332 228.447 19.4813 228.876 19.78C229.315 20.0787 229.651 20.4987 229.884 21.04C230.127 21.572 230.248 22.1973 230.248 22.916C230.248 23.6067 230.127 24.218 229.884 24.75C229.651 25.2727 229.315 25.6787 228.876 25.968C228.447 26.2573 227.943 26.402 227.364 26.402ZM227.7 25.282C228.092 25.282 228.433 25.1793 228.722 24.974C229.011 24.7593 229.24 24.4747 229.408 24.12C229.576 23.756 229.66 23.3407 229.66 22.874C229.66 22.4073 229.576 21.9967 229.408 21.642C229.24 21.2873 229.007 21.012 228.708 20.816C228.419 20.6107 228.078 20.508 227.686 20.508C227.275 20.508 226.911 20.6107 226.594 20.816C226.286 21.012 226.043 21.2873 225.866 21.642C225.689 21.9967 225.6 22.4073 225.6 22.874C225.6 23.3407 225.689 23.756 225.866 24.12C226.053 24.4747 226.3 24.7593 226.608 24.974C226.925 25.1793 227.289 25.282 227.7 25.282ZM232.863 26.5V16.7H234.193V26.5H232.863ZM239.129 26.668C238.448 26.668 237.846 26.514 237.323 26.206C236.801 25.8887 236.39 25.4547 236.091 24.904C235.793 24.3533 235.643 23.7187 235.643 23C235.643 22.2813 235.793 21.6467 236.091 21.096C236.39 20.5453 236.801 20.116 237.323 19.808C237.855 19.4907 238.462 19.332 239.143 19.332C239.787 19.332 240.352 19.4953 240.837 19.822C241.323 20.1393 241.701 20.5967 241.971 21.194C242.251 21.782 242.391 22.4773 242.391 23.28H236.735L236.987 23.07C236.987 23.5647 237.085 23.994 237.281 24.358C237.477 24.722 237.743 25.002 238.079 25.198C238.415 25.3847 238.798 25.478 239.227 25.478C239.694 25.478 240.081 25.3707 240.389 25.156C240.707 24.932 240.954 24.652 241.131 24.316L242.279 24.848C242.093 25.212 241.85 25.534 241.551 25.814C241.253 26.0847 240.898 26.2947 240.487 26.444C240.086 26.5933 239.633 26.668 239.129 26.668ZM237.071 22.44L236.805 22.23H241.229L240.977 22.44C240.977 22.0293 240.893 21.6793 240.725 21.39C240.557 21.0913 240.333 20.8673 240.053 20.718C239.773 20.5593 239.461 20.48 239.115 20.48C238.779 20.48 238.453 20.5593 238.135 20.718C237.827 20.8673 237.571 21.0867 237.365 21.376C237.169 21.6653 237.071 22.02 237.071 22.44Z" fill="#737373"/>
</svg>
